<?xml version="1.0" encoding="utf-8"?>
<!DOCTYPE svg PUBLIC "-//W3C//DTD SVG 1.1 Tiny//EN" "http://www.w3.org/Graphics/SVG/1.1/DTD/svg11-tiny.dtd">
<svg version="1.1" baseProfile="tiny" id="Layer_1"
	 xmlns="http://www.w3.org/2000/svg" xmlns:xlink="http://www.w3.org/1999/xlink" x="0px" y="0px" width="200px" height="200px"
	 viewBox="0 0 200 200" xml:space="preserve">
<path fill="#D9D673" d="M98.655,195.824c-4.962,0-9.314-2.269-12.018-6.445c-1.253-1.935-4.843-10.271-5.774-12.326
	c-2.423-5.354-11.796-28.881-12.389-30.572c-0.217-0.621-1.067-2.482-1.067-2.482c-12.817-4.386-21.575-15.666-27.378-27.416
	c-3.543-7.176-6.216-14.785-8.224-22.525c-0.935-3.605-3.951-15.407-4.612-17.697c6.474-0.917,12.949-1.829,19.423-2.747
	c0.211,1.052,0.423,2.103,0.633,3.153l20.569-4.311c0.06-1.05,0.122-2.1,0.183-3.149c5.43-1.079,10.859-2.162,16.288-3.244
	c-7.6-9.377-16.117-17.88-24.605-26.434L81.904,29.4l3.229,4.267l34.274-15.562l-2.595-4.777l19.877-9.152
	c0,0,5.076,8.803,6.924,13.577c4.802,12.413,8.47,25.341,10.806,38.443c2.663,14.93,3.587,30.573,0.188,45.468
	c-1.389,6.08-3.531,12.008-6.618,17.437c-1.448,2.549-3.103,4.979-4.954,7.253c-0.229,0.279-1.889,1.902-1.799,2.15
	c0.092,0.246,10.422,28.213,11.472,31.058c2.104,5.696,1.09,11.383-3.118,15.774c-1.847,1.928-4.531,2.773-6.947,3.781
	c-3.531,1.473-25.131,10.475-32.399,13.504C106.482,194.191,102.846,195.824,98.655,195.824L98.655,195.824 M87.728,70.434
	c-0.696,2.876-1.488,5.75-2,8.665l6.988-1.731C91.185,75.103,89.522,72.791,87.728,70.434L87.728,70.434"/>
<path fill="#FFFFFF" d="M98.655,193.162c-5.151,0-9.079-2.988-11.083-7.613c-1.606-3.707-3.294-7.379-4.95-11.069
	c-2.799-6.242-12.539-31.499-12.811-32.31c-0.109-0.326-1.543-0.69-1.543-0.69c-13.122-4.487-21.625-16.677-27.137-28.784
	c-3.162-6.945-5.569-14.245-7.338-21.666c-0.726-3.044-3.192-12.466-3.192-12.466l13.902-1.965l0.67,3.32l25.184-5.277l0.181-3.127
	l14.911-2.972l-3.011,14.114l14.567-3.611C87.742,64.78,76.191,52.476,64.253,40.451l16.821-7.741l3.227,4.256l38.815-17.622
	l-2.604-4.787l15.053-6.934c0,0,2.996,4.867,4.088,7.415c1.154,2.688,2.178,5.433,3.162,8.185
	c5.024,14.042,8.789,28.687,10.469,43.521c2.392,21.139,0.312,45-15.129,61.087c2.178,5.928,4.377,11.85,6.564,17.772
	c1.426,3.856,2.852,7.715,4.274,11.571c0.961,2.602,2.043,5.125,2.179,7.939c0.229,4.756-2.804,8.732-7.027,10.493
	c-2.737,1.142-5.476,2.282-8.213,3.425c-7.896,3.291-15.795,6.582-23.691,9.873C107.908,190.714,103.423,193.162,98.655,193.162
	L98.655,193.162"/>
<linearGradient id="SVGID_1_" gradientUnits="userSpaceOnUse" x1="54.9058" y1="106.2729" x2="54.9058" y2="39.7283" gradientTransform="matrix(1 0 0 -1 2.5 178.999)">
	<stop  offset="0" style="stop-color:#00BDBB"/>
	<stop  offset="0.216" style="stop-color:#00B3B1"/>
	<stop  offset="1" style="stop-color:#00918F"/>
</linearGradient>
<path fill="url(#SVGID_1_)" d="M55.405,90.083l11.91-3.006c0,0,7.018-1.74,10.527-2.61c0.622-3.947,1.398-7.858,2.339-11.741
	l-6.773,1.349c-0.051,0.858-0.225,2.284-0.253,3.115l-31.339,6.564c-0.262-0.651-0.267-1.708-0.64-3.558L34.63,81.12
	c0.784,2.719,1.334,5.416,1.977,8.169c1.638,7.012,3.867,13.917,6.773,20.507c5.125,11.623,13.165,23.873,25.839,28.047
	c-2.964-8.971-5.514-18.079-7.799-27.245c-0.757-3.037-1.483-6.081-2.172-9.136c-0.201-0.889-0.399-1.779-0.592-2.671L55.405,90.083
	z"/>
<linearGradient id="SVGID_2_" gradientUnits="userSpaceOnUse" x1="40.0601" y1="86.2544" x2="70.3789" y2="86.2544" gradientTransform="matrix(1 0 0 -1 2.5 178.999)">
	<stop  offset="0" style="stop-color:#FFFFFF"/>
	<stop  offset="1" style="stop-color:#6CC6E6"/>
</linearGradient>
<path fill="url(#SVGID_2_)" d="M56.667,89.646l14.043-3.458l1.587-0.346c0.2-2.156,0.422-3.906,0.582-5.053L42.56,87.293
	c1.15,6.673,2.618,12.43,4.301,17.408l12.335-3.474C59.05,100.582,56.667,89.646,56.667,89.646z"/>
<linearGradient id="SVGID_3_" gradientUnits="userSpaceOnUse" x1="42.0688" y1="86.2095" x2="68.3398" y2="86.2095" gradientTransform="matrix(1 0 0 -1 2.5 178.999)">
	<stop  offset="0" style="stop-color:#9EE2FB"/>
	<stop  offset="1" style="stop-color:#D6F5FF"/>
</linearGradient>
<path fill="url(#SVGID_3_)" d="M58.084,95.803l0.732,3.723l-10.821,3.045c-1.354-4.254-2.504-8.926-3.426-13.927l26.271-5.636
	c-0.036,0.86-0.071,1.72-0.106,2.58c-0.031,0.736-0.089,0.616-0.803,0.795c-1.938,0.487-3.876,0.975-5.815,1.461
	C60.439,88.768,57.844,91.946,58.084,95.803"/>
<linearGradient id="SVGID_4_" gradientUnits="userSpaceOnUse" x1="45.3628" y1="67.2021" x2="62.3063" y2="67.2021" gradientTransform="matrix(1 0 0 -1 2.5 178.999)">
	<stop  offset="0" style="stop-color:#FFFFFF"/>
	<stop  offset="1" style="stop-color:#6CC6E6"/>
</linearGradient>
<path fill="url(#SVGID_4_)" d="M59.814,103.93l-11.951,3.579c1.815,4.816,3.839,8.822,5.961,12.154l9.124-3.115L59.814,103.93z"/>
<linearGradient id="SVGID_5_" gradientUnits="userSpaceOnUse" x1="46.896" y1="67.3335" x2="62.0152" y2="67.3335" gradientTransform="matrix(1 0 0 -1 2.5 178.999)">
	<stop  offset="0" style="stop-color:#9EE2FB"/>
	<stop  offset="1" style="stop-color:#D6F5FF"/>
</linearGradient>
<path fill="url(#SVGID_5_)" d="M54.32,118.269l8.333-2.846c-1.037-3.971-1.901-7.508-2.574-10.361l-10.683,3.199
	C50.851,111.938,52.502,115.296,54.32,118.269"/>
<linearGradient id="SVGID_6_" gradientUnits="userSpaceOnUse" x1="53.0371" y1="54.2231" x2="65.7134" y2="54.2231" gradientTransform="matrix(1 0 0 -1 2.5 178.999)">
	<stop  offset="0" style="stop-color:#FFFFFF"/>
	<stop  offset="1" style="stop-color:#6CC6E6"/>
</linearGradient>
<path fill="url(#SVGID_6_)" d="M63.674,119.267l-8.137,2.918c2.551,3.514,5.196,6.133,7.761,8.1L66.443,129L63.674,119.267z"/>
<linearGradient id="SVGID_7_" gradientUnits="userSpaceOnUse" x1="54.9131" y1="54.3271" x2="65.3865" y2="54.3271" gradientTransform="matrix(1 0 0 -1 2.5 178.999)">
	<stop  offset="0" style="stop-color:#9EE2FB"/>
	<stop  offset="1" style="stop-color:#D6F5FF"/>
</linearGradient>
<path fill="url(#SVGID_7_)" d="M63.483,128.955l2.628-1.072c-0.759-2.572-1.471-5.086-2.131-7.493l-6.567,2.358
	C59.286,125.141,61.32,127.223,63.483,128.955"/>
<linearGradient id="SVGID_8_" gradientUnits="userSpaceOnUse" x1="58.5688" y1="43.6646" x2="144.7949" y2="43.6646" gradientTransform="matrix(1 0 0 -1 2.5 178.999)">
	<stop  offset="0" style="stop-color:#ADE8FF"/>
	<stop  offset="1" style="stop-color:#00A5E3"/>
</linearGradient>
<path fill="url(#SVGID_8_)" d="M101.881,81.231c0,0-7.801,1.934-11.701,2.901c-7.351,1.822-14.701,3.646-22.052,5.468
	c-3.238,0.803-6.321,2.385-6.963,6.062c-0.462,2.647,0.862,5.653,1.459,8.197c0.63,2.686,1.251,5.37,1.914,8.047
	c4.055,16.371,9.074,32.438,15.466,48.051c2.692,6.574,5.556,13.08,8.569,19.515c0.896,1.913,1.558,4.022,2.608,5.853
	c1.534,2.67,4.067,4.114,7.152,4.114c3.965,0,7.785-2.136,11.401-3.644c7.816-3.258,15.634-6.518,23.451-9.775
	c2.95-1.229,5.9-2.46,8.853-3.689c0.452-0.188,0.912-0.365,1.358-0.565c1.53-0.554,2.847-2.327,3.431-3.786
	c0.7-1.75,0.519-3.65,0.077-5.439c-0.836-3.4-2.465-6.754-3.676-10.031c-2.776-7.521-5.557-15.043-8.334-22.563
	c-0.444-1.204-1.336-3.614-1.336-3.614L101.881,81.231z"/>
<linearGradient id="SVGID_9_" gradientUnits="userSpaceOnUse" x1="72.8145" y1="36.2852" x2="128.0979" y2="56.4067" gradientTransform="matrix(1 0 0 -1 2.5 178.999)">
	<stop  offset="0" style="stop-color:#ADE8FF"/>
	<stop  offset="1" style="stop-color:#00ADEE"/>
</linearGradient>
<path fill="url(#SVGID_9_)" d="M109.846,89.819l-7.068-7.016c0,0-9.02,2.236-13.529,3.354c-7.073,1.753-14.146,3.507-21.219,5.261
	c-0.412,0.103-0.85,0.173-1.252,0.311c-3.185,0.794-3.928,3.901-3.384,7.492l0.278,1.022l21.627,59.818l3.183,15.056
	c0,0,2.493,5.76,3.816,8.582c3.657,7.797,13.465,1.866,19.152-0.505c7.992-3.331,15.984-6.663,23.977-9.995
	c2.094-0.871,4.188-1.744,6.279-2.617c2.701-1.125,4.675-3.812,3.568-6.873c0.084-1.082-0.642-2.396-1.006-3.381
	c-0.846-2.289-1.69-4.58-2.537-6.869c-2.758-7.467-5.516-14.936-8.273-22.401c-0.428-1.156-0.854-2.313-1.282-3.47L109.846,89.819z"
	/>
<linearGradient id="SVGID_10_" gradientUnits="userSpaceOnUse" x1="65.5396" y1="48.126" x2="108.7365" y2="91.3229" gradientTransform="matrix(1 0 0 -1 2.5 178.999)">
	<stop  offset="0" style="stop-color:#C9F0FF"/>
	<stop  offset="1" style="stop-color:#6BCAEE"/>
</linearGradient>
<path fill="url(#SVGID_10_)" d="M87.362,135.339c-4.277-11.555-7.726-23.459-11.108-35.302c-1.08-2.711,3.858-3.046,5.511-3.457
	c4.209-1.044,8.417-2.087,12.626-3.13c3.946-0.979,7.891-1.957,11.835-2.935c0.104-0.025,0.215-0.057,0.33-0.09
	c-0.23-0.539-0.469-1.074-0.714-1.607c-3.599,0.892-7.198,1.783-10.798,2.676c-4.439,1.101-8.878,2.2-13.317,3.301
	c-2.369,0.587-7.736,1.466-7.378,3.919s1.111,5.677,0.735,4.065s5.502,18.6,9.386,29.676c0.649,1.854,1.328,3.694,2.024,5.53
	c0.563-0.151,1.124-0.321,1.684-0.502C87.908,136.769,87.627,136.057,87.362,135.339z"/>
<linearGradient id="SVGID_11_" gradientUnits="userSpaceOnUse" x1="92.0908" y1="21.5747" x2="135.2868" y2="64.7707" gradientTransform="matrix(1 0 0 -1 2.5 178.999)">
	<stop  offset="0" style="stop-color:#C9F0FF"/>
	<stop  offset="1" style="stop-color:#6BCAEE"/>
</linearGradient>
<path fill="url(#SVGID_11_)" d="M131.275,144.312c0.518,1.409-0.655,1.955-1.734,2.322c-9.936,3.385-19.868,6.769-29.802,10.152
	c-0.63,0.215-1.451,0.635-2.136,0.58c-1.434-0.105-1.983-2.135-2.485-3.24c-2.441-5.383-4.725-10.842-6.833-16.365
	c-0.592,0.088-1.184,0.175-1.775,0.262c1.927,5.072,4.02,10.083,6.223,15.039c0.646,1.452,1.198,3.206,2.108,4.525
	c1.105,1.602,2.904,1.719,4.569,1.15c10.793-3.678,21.586-7.354,32.379-11.031l-0.045-0.123c1.242-0.859,1.68-2.467,1.166-3.873
	c-1.57-4.271-3.141-8.541-4.71-12.812c-0.478,0.385-0.954,0.768-1.433,1.152C128.27,136.136,129.773,140.225,131.275,144.312z"/>
<linearGradient id="SVGID_12_" gradientUnits="userSpaceOnUse" x1="73.6021" y1="83.7661" x2="130.673" y2="83.7661" gradientTransform="matrix(1 0 0 -1 2.5 178.999)">
	<stop  offset="0" style="stop-color:#3AA5DE"/>
	<stop  offset="1" style="stop-color:#A2D8EB"/>
</linearGradient>
<path fill="url(#SVGID_12_)" d="M108.342,94.329l-1.783-3.902c0,0-8.222,2.046-12.167,3.025c-4.208,1.043-8.417,2.086-12.626,3.13
	c-1.653,0.411-6.591,0.746-5.511,3.457C76.335,100.019,108.342,94.329,108.342,94.329z"/>
<linearGradient id="SVGID_13_" gradientUnits="userSpaceOnUse" x1="65.583" y1="39.6567" x2="128.9024" y2="39.6567" gradientTransform="matrix(1 0 0 -1 2.5 178.999)">
	<stop  offset="0" style="stop-color:#3AA5DE"/>
	<stop  offset="1" style="stop-color:#A2D8EB"/>
</linearGradient>
<path fill="url(#SVGID_13_)" d="M123.497,132.522l6.043,14.112c1.079-0.367,2.252-0.913,1.735-2.322
	c-1.504-4.087-4.508-12.262-4.508-12.262L123.497,132.522z"/>
<linearGradient id="SVGID_14_" gradientUnits="userSpaceOnUse" x1="73.7539" y1="61.106" x2="130.4023" y2="61.106" gradientTransform="matrix(1 0 0 -1 2.5 178.999)">
	<stop  offset="0" style="stop-color:#FFFFFF"/>
	<stop  offset="0.1776" style="stop-color:#EDFAFE"/>
	<stop  offset="0.5357" style="stop-color:#BDECFD"/>
	<stop  offset="1" style="stop-color:#76D8FB"/>
</linearGradient>
<path fill="url(#SVGID_14_)" d="M110.615,104.281c-0.293-2.02-0.729-4.013-1.27-5.979l-33.092,1.735
	c3.383,11.843,6.831,23.748,11.108,35.302c0.266,0.718,0.546,1.43,0.818,2.146c5.284-1.713,10.386-4.663,14.401-8.396
	C109.581,122.583,111.959,113.554,110.615,104.281z"/>
<linearGradient id="SVGID_15_" gradientUnits="userSpaceOnUse" x1="86.2524" y1="43.8799" x2="128.3443" y2="36.458" gradientTransform="matrix(1 0 0 -1 2.5 178.999)">
	<stop  offset="0" style="stop-color:#FFFFFF"/>
	<stop  offset="0.4073" style="stop-color:#C2EDFD"/>
	<stop  offset="0.8069" style="stop-color:#8BDEFC"/>
	<stop  offset="1" style="stop-color:#76D8FB"/>
</linearGradient>
<path fill="url(#SVGID_15_)" d="M108.368,129.164l-20.082,8.596c0,0,4.392,10.982,6.833,16.367c0.501,1.104,1.051,3.135,2.485,3.238
	c0.685,0.057,1.506-0.365,2.136-0.578c9.934-3.386,29.802-10.154,29.802-10.154l-5.181-14.094l10.021-10.067L108.368,129.164z"/>
<linearGradient id="SVGID_16_" gradientUnits="userSpaceOnUse" x1="61.1104" y1="38.938" x2="90.146" y2="38.938" gradientTransform="matrix(1 0 0 -1 2.5 178.999)">
	<stop  offset="0" style="stop-color:#3AA5DE"/>
	<stop  offset="1" style="stop-color:#A2D8EB"/>
</linearGradient>
<path fill="url(#SVGID_16_)" d="M90.821,180.154c0.458-0.224,1.089-0.421,1.456-0.785c1.214-1.236-0.909-4.434-1.411-5.603
	c-1.945-4.532-3.786-9.108-5.571-13.706c-5.229-13.459-9.866-27.037-13.646-40.975c-1.306-4.816-2.554-9.648-3.748-14.494
	c-0.274-1.111-0.546-2.225-0.812-3.34c-0.415-1.741-2.138-1.301-3.421-1.009c0.744,2.71,1.182,5.571,1.834,8.289
	c3.833,15.957,8.524,31.692,14.58,46.955c2.614,6.59,5.414,13.104,8.359,19.553c0.608,1.326,1.219,2.651,1.839,3.973
	C90.461,179.393,90.641,179.773,90.821,180.154z"/>
<linearGradient id="SVGID_17_" gradientUnits="userSpaceOnUse" x1="90.2993" y1="49.3877" x2="90.2993" y2="105.9383" gradientTransform="matrix(1 0 0 -1 2.5 178.999)">
	<stop  offset="0" style="stop-color:#76D8FB"/>
	<stop  offset="1" style="stop-color:#E4F5FB"/>
</linearGradient>
<path fill="url(#SVGID_17_)" d="M109.346,98.303c-0.555-2.018-1.229-4.004-2-5.96c-0.125,0.023-30.564,7.564-31.093,7.695
	c2.832,9.915,5.816,19.795,9.083,29.574C86.594,115.148,96.221,103.102,109.346,98.303z"/>
<linearGradient id="SVGID_18_" gradientUnits="userSpaceOnUse" x1="112.0566" y1="19.5874" x2="124.7578" y2="12.2544" gradientTransform="matrix(1 0 0 -1 2.5 178.999)">
	<stop  offset="0" style="stop-color:#C9F0FF"/>
	<stop  offset="1" style="stop-color:#6BCAEE"/>
</linearGradient>
<path fill="url(#SVGID_18_)" d="M121.208,170.636c-3.158,0-6.051-2.279-7.028-5.541c-1.205-4.016,0.834-8.188,4.543-9.301
	c0.61-0.184,1.245-0.275,1.883-0.275c3.16,0,6.051,2.279,7.028,5.54c1.206,4.017-0.833,8.187-4.543,9.302
	C122.479,170.542,121.846,170.636,121.208,170.636L121.208,170.636z"/>
<linearGradient id="SVGID_19_" gradientUnits="userSpaceOnUse" x1="113.6201" y1="14.1353" x2="123.3685" y2="17.6834" gradientTransform="matrix(1 0 0 -1 2.5 178.999)">
	<stop  offset="0" style="stop-color:#3AA5DE"/>
	<stop  offset="1" style="stop-color:#A2D8EB"/>
</linearGradient>
<path fill="url(#SVGID_19_)" d="M119.326,157.531c-2.944,0.885-4.131,4.281-3.299,7.049c0.828,2.769,3.689,4.955,6.635,4.07
	c2.945-0.884,4.13-4.281,3.3-7.051C125.13,158.832,122.27,156.647,119.326,157.531z"/>
<linearGradient id="SVGID_20_" gradientUnits="userSpaceOnUse" x1="107.209" y1="40.8896" x2="107.209" y2="166.9102" gradientTransform="matrix(1 0 0 -1 2.5 178.999)">
	<stop  offset="0" style="stop-color:#CBEEFB"/>
	<stop  offset="0.1436" style="stop-color:#97DBE4"/>
	<stop  offset="0.2898" style="stop-color:#69CAD0"/>
	<stop  offset="0.4368" style="stop-color:#43BCBF"/>
	<stop  offset="0.5823" style="stop-color:#26B1B2"/>
	<stop  offset="0.7256" style="stop-color:#11A9A8"/>
	<stop  offset="0.866" style="stop-color:#04A5A3"/>
	<stop  offset="1" style="stop-color:#00A3A1"/>
</linearGradient>
<path fill="url(#SVGID_20_)" d="M148.214,61.172c-1.845-12.006-4.952-23.83-8.946-35.295c-1.016-2.915-2.088-5.812-3.262-8.668
	c-0.734-1.786-1.775-3.434-2.711-5.12l-8.622,3.97c1.942,3.573,2.29,3.83,2.504,4.857L82.404,41.245
	c-0.535-0.782-1.419-1.9-3.202-4.253l-9.619,4.429c9.631,9.7,18.879,19.827,26.668,31.093c6.562,9.489,12.665,20.226,14.345,31.813
	c1.344,9.272-1.035,18.303-8.035,24.81c-4.504,4.187-10.375,7.399-16.338,8.973c3.412-0.503,6.823-1.007,10.234-1.51
	c1.686-0.249,2.808-0.322,4.257-1.235c1.631-1.027,3.2-2.156,4.674-3.4c0.686-0.577,1.35-1.18,1.987-1.809
	c0.233-0.23,0.653-0.869,0.976-0.945c7.026-1.668,14.057-3.336,21.084-5.006c0.979-0.231,1.959-0.465,2.938-0.697
	c-3.014,4.318-10.206,8.445-12.357,9.619c1.728-0.215,3.452-0.432,5.178-0.646c0.356-0.045,1.066,0.014,1.358-0.223
	c0.757-0.608,1.513-1.217,2.269-1.823c3.988-3.208,7.627-6.476,10.601-10.688c7.058-10.004,9.826-22.373,10.326-34.44
	C150.081,77.237,149.438,69.145,148.214,61.172"/>
<linearGradient id="SVGID_21_" gradientUnits="userSpaceOnUse" x1="110.7832" y1="152.603" x2="110.7832" y2="110.3638" gradientTransform="matrix(1 0 0 -1 2.5 178.999)">
	<stop  offset="0" style="stop-color:#FFFFFF"/>
	<stop  offset="1" style="stop-color:#76D8FB"/>
</linearGradient>
<path fill="url(#SVGID_21_)" d="M130.579,26.397L86.176,46.286c3.026,3.575,9.82,11.913,16.153,22.35l38.063-14.08
	C138.166,46.074,134.979,36.717,130.579,26.397"/>
<linearGradient id="SVGID_22_" gradientUnits="userSpaceOnUse" x1="88.959" y1="131.3022" x2="133.9268" y2="131.3022" gradientTransform="matrix(1 0 0 -1 2.5 178.999)">
	<stop  offset="0" style="stop-color:#FFFFFF"/>
	<stop  offset="1" style="stop-color:#76D8FB"/>
</linearGradient>
<path fill="url(#SVGID_22_)" d="M103.709,64.617c-4.393-6.963-8.917-12.95-12.25-17.095l37.387-16.745
	c3.08,7.515,5.623,14.803,7.581,21.738L103.709,64.617L103.709,64.617"/>
<linearGradient id="SVGID_23_" gradientUnits="userSpaceOnUse" x1="121.9639" y1="119.605" x2="121.9639" y2="87.5024" gradientTransform="matrix(1 0 0 -1 2.5 178.999)">
	<stop  offset="0" style="stop-color:#FFFFFF"/>
	<stop  offset="1" style="stop-color:#76D8FB"/>
</linearGradient>
<path fill="url(#SVGID_23_)" d="M141.584,59.394l-37.32,13.057c3.573,6.21,6.639,12.111,8.846,19.046l31.557-9.621
	C144.443,75.246,143.502,67.78,141.584,59.394"/>
<linearGradient id="SVGID_24_" gradientUnits="userSpaceOnUse" x1="105.6055" y1="103.4526" x2="139.4473" y2="103.4526" gradientTransform="matrix(1 0 0 -1 2.5 178.999)">
	<stop  offset="0" style="stop-color:#FFFFFF"/>
	<stop  offset="1" style="stop-color:#76D8FB"/>
</linearGradient>
<path fill="url(#SVGID_24_)" d="M114.784,88.234c-1.894-5.278-4.263-9.991-6.679-14.341l31.539-11.034
	c1.232,5.958,2.004,11.688,2.303,17.095L114.784,88.234L114.784,88.234"/>
<linearGradient id="SVGID_25_" gradientUnits="userSpaceOnUse" x1="127.0215" y1="92.0049" x2="127.0215" y2="67.29" gradientTransform="matrix(1 0 0 -1 2.5 178.999)">
	<stop  offset="0" style="stop-color:#FFFFFF"/>
	<stop  offset="1" style="stop-color:#76D8FB"/>
</linearGradient>
<path fill="url(#SVGID_25_)" d="M144.695,86.994l-30.346,8.702c1.494,5.498,2.199,10.892,1.748,16.013l25.816-6.127
	C143.456,100.42,144.527,94.278,144.695,86.994"/>
<linearGradient id="SVGID_26_" gradientUnits="userSpaceOnUse" x1="114.2383" y1="79.5854" x2="140.1162" y2="79.5854" gradientTransform="matrix(1 0 0 -1 2.5 178.999)">
	<stop  offset="0" style="stop-color:#FFFFFF"/>
	<stop  offset="1" style="stop-color:#76D8FB"/>
</linearGradient>
<path fill="url(#SVGID_26_)" d="M118.198,109.181c0.057-3.77-0.435-7.826-1.46-12.115l25.878-7.42
	c-0.286,5.063-1.052,9.853-2.279,14.279L118.198,109.181L118.198,109.181"/>
<linearGradient id="SVGID_27_" gradientUnits="userSpaceOnUse" x1="123.2969" y1="70.4854" x2="123.2969" y2="52.583" gradientTransform="matrix(1 0 0 -1 2.5 178.999)">
	<stop  offset="0" style="stop-color:#FFFFFF"/>
	<stop  offset="1" style="stop-color:#76D8FB"/>
</linearGradient>
<path fill="url(#SVGID_27_)" d="M140.955,108.513l-25.23,5.988c-0.752,4.222-2.367,8.229-5.084,11.914l23.938-5.685
	C136.811,117.669,139.109,113.651,140.955,108.513"/>
<linearGradient id="SVGID_28_" gradientUnits="userSpaceOnUse" x1="111.042" y1="61.6265" x2="136.3291" y2="61.6265" gradientTransform="matrix(1 0 0 -1 2.5 178.999)">
	<stop  offset="0" style="stop-color:#FFFFFF"/>
	<stop  offset="1" style="stop-color:#76D8FB"/>
</linearGradient>
<path fill="url(#SVGID_28_)" d="M113.542,124.375c1.558-2.713,2.666-5.654,3.313-8.789l21.974-5.215
	c-1.024,2.484-2.246,4.894-3.677,7.17c-0.603,0.957-0.905,1.92-2.002,2.18c-2.178,0.518-4.356,1.033-6.534,1.552
	C122.258,122.306,117.9,123.339,113.542,124.375L113.542,124.375"/>
<rect fill="none" width="200" height="200"/>
</svg>
