<?xml version="1.0" encoding="utf-8"?>
<!DOCTYPE svg PUBLIC "-//W3C//DTD SVG 1.1 Tiny//EN" "http://www.w3.org/Graphics/SVG/1.1/DTD/svg11-tiny.dtd">
<svg version="1.1" baseProfile="tiny" id="Layer_1"
	 xmlns="http://www.w3.org/2000/svg" xmlns:xlink="http://www.w3.org/1999/xlink" x="0px" y="0px" width="200px" height="200px"
	 viewBox="0 0 200 200" xml:space="preserve">
<path fill="#D9D673" d="M63.123,161.91c-4.61,0-11.42-0.418-17.685-2.408c-16.815-5.344-30.556-19.178-36.759-37
	c-6.003-17.25-4.61-36.396,3.821-52.529c8.793-16.832,24.514-28.412,42.055-30.979c0.213-0.031,5.389-0.904,10.95-0.904
	c5.442,0,11.9,1.068,16.13,2.066c9.868,2.332,19,7.02,26.41,13.557c0.396,0.35,0.788,0.705,1.18,1.066l7.883-8.775
	c1.156-1.316,3.42-2.744,6.25-2.744c1.379,0,2.732,0.328,4.022,0.98c1.046,0.52,53.154,25.819,53.154,25.819
	c3.373,2.059,5.229,5.508,5.087,9.475l0.355,3.896c0.123,1.045,0.041,2.184-0.232,3.287L195,99.537l-55.334,57.783l-11.422-6.92
	c-1.475,0.572-2.985,0.863-4.51,0.863c-6.986,0-11.418-5.88-11.457-5.938l-1.162-1.763c-1.167,1.183-2.389,2.322-3.648,3.406
	c-10.257,8.836-24.046,14.182-37.831,14.672C69.636,161.641,66.209,161.91,63.123,161.91L63.123,161.91z"/>
<path fill="#FFFFFF" d="M46.239,156.986c-16-5.084-29.119-18.262-35.066-35.354c-5.764-16.562-4.428-34.945,3.668-50.438
	c8.4-16.084,23.39-27.145,40.096-29.588c1.497-0.219,4.263-0.877,10.569-0.877c4.989,0,11.176,0.969,15.522,1.994
	c9.328,2.205,18.132,6.67,25.27,12.969c1.048,0.922,2.058,1.883,3.05,2.896l9.723-10.822c0.785-0.891,2.342-1.867,4.285-1.867
	c0.963,0,1.918,0.234,2.838,0.695c1.074,0.539,52.937,25.697,52.937,25.697c2.618,1.6,4.005,4.248,3.845,7.305l0.371,4.07
	c0.113,0.98-0.002,2.268-0.527,3.51l8.755,12.119l-52.349,54.67l-10.8-6.543c-7.638,3.975-13.698-3.18-13.94-3.549l-3.006-4.562
	c-1.775,2.013-3.694,3.904-5.733,5.66c-9.878,8.508-22.969,13.562-36.2,14.031C68.871,159.027,56.733,160.32,46.239,156.986z"/>
<polygon fill="#FAAF40" points="173.488,91.551 187.166,99.137 177.876,86.376 "/>
<polygon fill="#FAAF40" points="165.896,100.203 179.064,107.668 170.118,95.691 "/>
<polygon fill="#FAAF40" points="159.002,108.049 171.721,115.396 162.924,103.881 "/>
<polygon fill="#FAAF40" points="152.712,115.188 165.036,122.432 156.375,111.32 "/>
<polygon fill="#FAAF40" points="147.176,121.849 158.924,128.865 150.446,118.188 "/>
<polygon fill="#FAAF40" points="141.884,127.846 153.311,134.771 144.874,124.315 "/>
<polygon fill="#FAAF40" points="136.771,133.146 148.145,140.211 139.751,129.895 "/>
<polygon fill="#FAAF40" points="132.188,138.281 143.37,145.236 134.869,134.973 "/>
<polygon fill="#FAAF40" points="127.909,142.951 138.945,149.893 130.496,139.832 "/>
<path fill="#DE9B39" d="M129.102,141.67l9.332,7.9l-7.938-9.422C129.988,140.701,129.525,141.209,129.102,141.67z"/>
<path fill="#DE9B39" d="M133.411,136.924l9.455,7.998l-7.997-9.621C134.365,135.861,133.879,136.404,133.411,136.924z"/>
<path fill="#DE9B39" d="M138.139,131.643l9.512,8.264l-8.084-9.867C139.08,130.586,138.604,131.117,138.139,131.643z"/>
<path fill="#DE9B39" d="M143.068,126.094l9.758,8.383l-8.189-10.148C144.107,124.924,143.586,125.512,143.068,126.094z"/>
<path fill="#DE9B39" d="M148.355,120.123l10.09,8.459l-8.312-10.471C149.537,118.785,148.943,119.455,148.355,120.123z"/>
<path fill="#DE9B39" d="M154.438,113.23l10.131,8.926l-8.447-10.836C155.561,111.957,154.999,112.594,154.438,113.23z"/>
<path fill="#DE9B39" d="M160.884,105.908l10.378,9.223l-8.595-11.25C162.077,104.553,161.482,105.227,160.884,105.908z"/>
<path fill="#DE9B39" d="M167.918,97.902l10.697,9.508l-8.758-11.719C169.225,96.414,168.576,97.152,167.918,97.902z"/>
<path fill="#DE9B39" d="M177.792,86.641c-0.64,0.729-1.313,1.502-2.026,2.314l10.959,9.937L177.792,86.641z"/>
<path fill="#008A4A" d="M179.83,84.029l-0.4-4.393c-0.066,0.729-57.426,64.511-58.385,64.494l3.795,0.593
	c0,0,1.176,0.387,2.684-0.983c1.377-1.255,44.037-48.771,51.379-56.953C180.059,85.674,179.83,84.029,179.83,84.029z"/>
<path fill="#004C38" d="M177.279,75.297c0,0-51.295-24.859-52.678-25.553c-1.797-0.902-2.927,0.379-2.927,0.379l-12.312,13.705
	l2.402,69.543l5.651,8.576c0,0,1.403,2.145,3.628,2.183c0.959,0.017,2.066-0.353,3.286-1.462l54.845-61.803
	c0,0,0.188-0.5,0.254-1.229C179.541,78.412,179.312,76.539,177.279,75.297z"/>
<linearGradient id="SVGID_1_" gradientUnits="userSpaceOnUse" x1="86.9277" y1="53.4355" x2="145.0824" y2="111.5902" gradientTransform="matrix(0.9999 -0.0173 -0.0173 -0.9999 12.7467 173.4939)">
	<stop  offset="0" style="stop-color:#00733D"/>
	<stop  offset="0.2553" style="stop-color:#00793E"/>
	<stop  offset="0.6087" style="stop-color:#008B41"/>
	<stop  offset="1" style="stop-color:#00A745"/>
</linearGradient>
<path fill="url(#SVGID_1_)" d="M125.803,51.645c5.133,2.58,45.762,23.068,45.762,23.068c2.971,1.814,1.737,5.102,1.737,5.102
	c-10.144,11.592-47.055,53.723-50.252,56.628c-3.709,3.375-6.336-0.659-6.336-0.659l-3.229-4.857l-3.272-66.109
	c0,0,9.657-11.004,11.041-12.588c0,0,0.882-1.24,1.899-1.314C124.171,50.842,124.73,51.135,125.803,51.645z"/>
<path fill="#8BC53F" d="M163.32,77.807c-1.18-0.706-2.498-0.813-3.479-0.405l-17.193-9.473c0.045-0.961-0.584-2.033-1.678-2.687
	c-1.178-0.705-2.52-0.696-3.337-0.076l-8.765-4.828c0.086-0.801-0.418-1.715-1.338-2.266c-1.166-0.695-2.543-0.541-3.076,0.35
	c-0.379,0.633-0.221,1.465,0.318,2.145l-1.779,2.005l1.215,0.768l1.721-1.881c0.896,0.404,1.844,0.338,2.426-0.149l8.559,5.169
	c-0.081,0.979,0.545,2.085,1.666,2.755c1.111,0.666,2.375,0.699,3.201,0.18l11.437,6.835l-9.06,10.733l3.892,3.185
	c-0.225,1.233,0.534,2.692,1.976,3.556c1.746,1.041,3.808,0.809,4.604-0.521c0.797-1.332,0.027-3.256-1.717-4.299
	c-1.25-0.747-2.655-0.828-3.647-0.331l-2.52-1.585l8.469-9.545l3.202,1.914c-0.069,1.168,0.687,2.477,2.019,3.273
	c1.746,1.043,3.807,0.809,4.604-0.521C165.834,80.773,165.064,78.85,163.32,77.807z"/>
<path fill="#8BC53F" d="M140.146,104.162c-0.092-0.055-0.187-0.092-0.278-0.139l0.241-10.472l-3.66-2.703l-1.379,1.725l2.808,2.02
	l-0.208,8.936c-0.908,0.056-1.699,0.441-2.125,1.154c-0.797,1.33-0.029,3.254,1.715,4.297c1.746,1.043,3.807,0.81,4.604-0.521
	C142.66,107.129,141.893,105.203,140.146,104.162z"/>
<path fill="#8BC53F" d="M124.171,104.973l-1.394,1.715l7.688,6.148l-6.37,7.857c-1.58-0.645-3.256-0.322-3.955,0.848
	c-0.795,1.33-0.027,3.254,1.717,4.297s3.806,0.809,4.603-0.521c0.59-0.984,0.317-2.293-0.567-3.33l7.681-9.475L124.171,104.973z"/>
<polygon fill="#666666" points="147.74,77.369 120.605,61.217 119.275,60.891 145.006,76.532 "/>
<path fill="#999999" d="M122.729,101.572l22.277-25.04l-25.8-15.642l-6.453,7.283L122.729,101.572z"/>
<linearGradient id="SVGID_2_" gradientUnits="userSpaceOnUse" x1="104.6855" y1="95.2275" x2="136.9742" y2="102.604" gradientTransform="matrix(1 0 0 -1 2.5 179)">
	<stop  offset="0" style="stop-color:#4D4D4D"/>
	<stop  offset="0.296" style="stop-color:#494949"/>
	<stop  offset="0.5898" style="stop-color:#3E3D3D"/>
	<stop  offset="0.8818" style="stop-color:#2C292A"/>
	<stop  offset="1" style="stop-color:#231F20"/>
</linearGradient>
<path fill="url(#SVGID_2_)" d="M118.664,64.672l-4.689,5.292l8.68,26.752l17.066-19.247L118.664,64.672z"/>
<path fill="#404040" d="M122.305,107.109l25.436-29.74l-2.734-0.837l-22.279,25.122
	C122.673,103.479,122.534,105.299,122.305,107.109z"/>
<linearGradient id="SVGID_3_" gradientUnits="userSpaceOnUse" x1="50.1987" y1="17.0425" x2="50.1987" y2="128.1079" gradientTransform="matrix(0.9999 -0.0173 -0.0173 -0.9999 12.7467 173.4939)">
	<stop  offset="0" style="stop-color:#63C2E6"/>
	<stop  offset="1" style="stop-color:#C8E5F2"/>
</linearGradient>
<path fill="url(#SVGID_3_)" d="M55.496,44.987C38.61,47.46,25.214,58.935,18.01,72.726c-7.646,14.631-8.869,32.117-3.463,47.65
	c5.101,14.66,16.566,28.035,32.802,33.149C64.207,158.84,82.08,153.6,94.2,142.215c23.325-21.918,24.237-61.645,0.815-84.164
	C84.794,48.229,70.223,42.833,55.496,44.987"/>
<linearGradient id="SVGID_4_" gradientUnits="userSpaceOnUse" x1="82.1792" y1="17.1162" x2="82.1792" y2="127.9409" gradientTransform="matrix(0.9999 -0.0173 -0.0173 -0.9999 12.7467 173.4939)">
	<stop  offset="0" style="stop-color:#2E6E87"/>
	<stop  offset="1" style="stop-color:#85CBE6"/>
</linearGradient>
<path fill="url(#SVGID_4_)" d="M104.02,58.229C93.866,49.27,79.81,43.956,65.297,44.643c11.222,0.824,21.782,5.781,29.719,13.408
	c23.421,22.52,22.509,62.246-0.815,84.164c-7.799,7.326-17.981,12.1-28.741,13.162c14.17,0.555,27.956-4.488,38.037-13.172
	C128.771,120.438,129.596,80.8,104.02,58.229z"/>
<linearGradient id="SVGID_5_" gradientUnits="userSpaceOnUse" x1="107.9424" y1="48.3198" x2="42.4163" y2="116.782" gradientTransform="matrix(0.9988 0.048 0.048 -0.9988 -21.2947 178.7324)">
	<stop  offset="0" style="stop-color:#2E6E87"/>
	<stop  offset="1" style="stop-color:#85CBE6"/>
</linearGradient>
<path fill="url(#SVGID_5_)" d="M49.147,148.729c-19.221-3.948-31.738-20.602-35.139-37.584C10.47,93.475,15.805,73.817,30.02,61.223
	c6.798-6.023,15.582-10.111,25.095-10.838c9.78-0.75,19.466,2.207,27.19,7.754c15.202,10.914,21.621,29.59,19.939,46.716
	c-1.199,12.193-6.518,24.209-15.927,32.955C76.668,146.775,62.868,151.548,49.147,148.729"/>
<linearGradient id="SVGID_6_" gradientUnits="userSpaceOnUse" x1="3.6279" y1="72.8691" x2="86.2666" y2="72.8691" gradientTransform="matrix(0.9999 -0.0173 -0.0173 -0.9999 12.7467 173.4939)">
	<stop  offset="0" style="stop-color:#429EC2"/>
	<stop  offset="1" style="stop-color:#85CBE6"/>
</linearGradient>
<path fill="url(#SVGID_6_)" d="M54.1,145.501c-1.665-0.08-3.332-0.274-4.993-0.584l0,0c-21.083-3.965-32.296-23.537-33.792-40.043
	c-1.502-16.57,5.581-37.48,24.789-46.844c5.82-2.838,12.252-4.123,18.594-3.818c3.669,0.178,7.307,0.885,10.781,2.135
	c8.42,3.025,15.85,9.127,20.923,17.18c10.07,15.984,9.751,37.35-0.794,53.165C81.315,139.126,67.782,146.159,54.1,145.501
	L54.1,145.501z"/>
<radialGradient id="SVGID_7_" cx="46.1543" cy="72.8066" r="38.8899" gradientTransform="matrix(0.9999 -0.0173 -0.0173 -0.9999 12.7467 173.4939)" gradientUnits="userSpaceOnUse">
	<stop  offset="0" style="stop-color:#FFFFFF"/>
	<stop  offset="0.308" style="stop-color:#FBFEFF"/>
	<stop  offset="0.5894" style="stop-color:#F0FBFF"/>
	<stop  offset="0.8597" style="stop-color:#DEF6FF"/>
	<stop  offset="1" style="stop-color:#D1F2FF"/>
</radialGradient>
<path fill="url(#SVGID_7_)" d="M55.005,59.198c-18.236,1.635-30.511,17.154-33.45,32.699c-3.006,15.908,2.748,34.486,18.047,43.839
	c7.6,4.646,17.055,6.22,25.841,3.992c8.21-2.08,15.167-7.147,20.046-13.44c10.46-13.494,11.874-32.545,3.859-47.465
	C82.961,66.929,69.946,57.858,55.005,59.198"/>
<linearGradient id="SVGID_8_" gradientUnits="userSpaceOnUse" x1="20.6006" y1="55.3286" x2="20.6006" y2="97.355" gradientTransform="matrix(0.9999 -0.0173 -0.0173 -0.9999 12.7467 173.4939)">
	<stop  offset="0" style="stop-color:#A2E64A"/>
	<stop  offset="0.1883" style="stop-color:#9EE44A"/>
	<stop  offset="0.3834" style="stop-color:#91DE4A"/>
	<stop  offset="0.5817" style="stop-color:#7DD44A"/>
	<stop  offset="0.7822" style="stop-color:#60C64A"/>
	<stop  offset="0.9825" style="stop-color:#3BB54A"/>
	<stop  offset="1" style="stop-color:#37B34A"/>
</linearGradient>
<path fill="url(#SVGID_8_)" d="M32.876,75.772c-9.073,11.982-10.086,29.1-2.527,42.08c1.771-1.828,3.542-3.653,5.312-5.481
	c1.409-1.457,1.259-1.338,0.444-3.123c-2.316-5.106-2.876-10.949-1.664-16.416c0.578-2.598,1.552-5.105,2.898-7.398
	c1.189-2.029,1.801-1.85,0.423-3.566C36.135,79.835,34.504,77.804,32.876,75.772"/>
<linearGradient id="SVGID_9_" gradientUnits="userSpaceOnUse" x1="68.4702" y1="48.605" x2="68.4702" y2="98.3696" gradientTransform="matrix(0.9999 -0.0173 -0.0173 -0.9999 12.7467 173.4939)">
	<stop  offset="0" style="stop-color:#ED0000"/>
	<stop  offset="0.0326" style="stop-color:#EE0903"/>
	<stop  offset="0.2972" style="stop-color:#F24F18"/>
	<stop  offset="0.5356" style="stop-color:#F58629"/>
	<stop  offset="0.7396" style="stop-color:#F8AE36"/>
	<stop  offset="0.9011" style="stop-color:#F9C63D"/>
	<stop  offset="1" style="stop-color:#FACF40"/>
</linearGradient>
<path fill="url(#SVGID_9_)" d="M76.596,97.401c0.096,4.025-0.719,8.074-2.424,11.727c-0.806,1.724-1.831,3.076-2.973,4.869
	l7.92,9.735c12.519-13.442,13.173-35.771,1.232-49.796l-8.584,9.07C74.844,87.589,76.165,92.06,76.596,97.401"/>
<linearGradient id="SVGID_10_" gradientUnits="userSpaceOnUse" x1="50.3579" y1="108.4561" x2="94.9627" y2="111.3749" gradientTransform="matrix(0.9988 0.048 0.048 -0.9988 -21.2947 178.7324)">
	<stop  offset="0" style="stop-color:#37B34A"/>
	<stop  offset="0.1291" style="stop-color:#65BA48"/>
	<stop  offset="0.2767" style="stop-color:#92C045"/>
	<stop  offset="0.4253" style="stop-color:#B8C543"/>
	<stop  offset="0.5726" style="stop-color:#D5CA42"/>
	<stop  offset="0.7184" style="stop-color:#E9CD41"/>
	<stop  offset="0.8617" style="stop-color:#F6CE40"/>
	<stop  offset="1" style="stop-color:#FACF40"/>
</linearGradient>
<path fill="url(#SVGID_10_)" d="M70.44,81.394c-8.273-9.139-22.109-9.031-30.309,0.205l-5.9-7.502
	c11.629-13.49,32.109-14.822,44.674-1.762L70.44,81.394"/>
<linearGradient id="SVGID_11_" gradientUnits="userSpaceOnUse" x1="40.8423" y1="32.2788" x2="44.214" y2="70.8171" gradientTransform="matrix(0.9999 -0.0173 -0.0173 -0.9999 12.7467 173.4939)">
	<stop  offset="0" style="stop-color:#85CBE6"/>
	<stop  offset="0.0816" style="stop-color:#98D3EA"/>
	<stop  offset="0.2688" style="stop-color:#BDE3F1"/>
	<stop  offset="0.4562" style="stop-color:#DAEFF7"/>
	<stop  offset="0.6416" style="stop-color:#EEF8FC"/>
	<stop  offset="0.824" style="stop-color:#FBFDFE"/>
	<stop  offset="1" style="stop-color:#FFFFFF"/>
</linearGradient>
<path fill="url(#SVGID_11_)" d="M53.358,101.753c0,0-24.102,24.99-23.943,25.19c2.676,3.396,5.962,6.39,9.871,8.779
	c7.6,4.646,17.055,6.221,25.84,3.992c4.797-1.217,9.168-3.453,12.945-6.357C78.973,132.665,53.358,101.753,53.358,101.753z"/>
<linearGradient id="SVGID_12_" gradientUnits="userSpaceOnUse" x1="77.1929" y1="65.1084" x2="66.5088" y2="83.6138" gradientTransform="matrix(0.9988 0.048 0.048 -0.9988 -21.2947 178.7324)">
	<stop  offset="0" style="stop-color:#429EC2"/>
	<stop  offset="1" style="stop-color:#85CBE6"/>
</linearGradient>
<path fill="url(#SVGID_12_)" d="M62.476,102.609c-1.938-3.786-6.345-6.554-10.957-5.225c-4.302,1.24-6.769,5.352-7.132,9.289
	c-0.374,4.043,1.32,8.537,5.156,10.844c4.096,2.461,9.127,1.133,11.856-2.354c1.368-1.746,2.011-3.873,2.325-6.002
	C64.19,105.999,62.476,102.609,62.476,102.609z"/>
<path fill="#4C78A6" d="M51.301,99.95c-9.12-0.447-9.24,15.067-0.171,15.137C59.949,115.15,60.041,100.38,51.301,99.95"/>
<path fill="#429EC2" d="M86.493,90.647L60.044,106.23l3.494,0.099l22.177-12.504C85.714,93.825,87.663,91.569,86.493,90.647z"/>
<linearGradient id="SVGID_13_" gradientUnits="userSpaceOnUse" x1="46.6758" y1="74.6123" x2="75.1729" y2="74.6123" gradientTransform="matrix(0.9999 -0.0173 -0.0173 -0.9999 12.7467 173.4939)">
	<stop  offset="0" style="stop-color:#429EC2"/>
	<stop  offset="1" style="stop-color:#85CBE6"/>
</linearGradient>
<path fill="url(#SVGID_13_)" d="M86.493,90.647c-0.129-0.951-1.499-1.568-2.711-0.971c-1.912,0.947-25.604,11.369-25.604,11.369
	c1.037,1.57,1.66,3.361,1.865,5.186c10.019-5.434,20.086-10.785,25.152-13.762C86.229,91.864,86.568,91.198,86.493,90.647z"/>
<rect fill="none" width="200" height="200"/>
</svg>
