<?xml version="1.0" encoding="utf-8"?>
<!DOCTYPE svg PUBLIC "-//W3C//DTD SVG 1.1 Tiny//EN" "http://www.w3.org/Graphics/SVG/1.1/DTD/svg11-tiny.dtd">
<svg version="1.1" baseProfile="tiny" id="Layer_1"
	 xmlns="http://www.w3.org/2000/svg" xmlns:xlink="http://www.w3.org/1999/xlink" x="0px" y="0px" width="200px" height="200px"
	 viewBox="0 0 200 200" xml:space="preserve">
<path fill="#D9D673" d="M149.662,191.924l-5.842-9.574c-8.5-12.908-16.701-23.369-24.371-31.082l-23.984,26.178
	c0,0-3.492,4.27-7.568,6.158c-0.756,0.354-1.553,0.646-2.357,0.873c-1.117,0.311-2.238,0.467-3.346,0.467
	c-5.506,0-10.674-5.326-10.674-5.326l-0.018-0.014c0,0-20.341-17.276-32.226-29.713c-11.186-11.705-21.271-24.334-26.289-30.82
	c-0.426-0.547-4.675-5.867-5.179-6.955c-1.871-4.035-1.291-8.869,1.469-12.346c0.508-0.764,1.131-1.447,1.85-2.031L27.621,84.48
	l-10.48-19.999l20.726-31.17l10.943,7.355c0.293,0.195,1.332,0.922,2.404,2.146c-0.025-2.727,0.094-5.304,0.354-7.715
	c0.396-3.637,1.166-7.026,1.912-8.437c1.045-1.935,2.707-3.207,4.691-3.601c0.389-0.081,0.838-0.127,1.275-0.127
	c0.131,0,26.509,5.264,26.509,5.264c2.414,0.301,4.303,1.444,5.465,3.282c2.305-3.814,3.926-6.227,3.926-6.227
	c1.361-1.685,3.551-2.544,6.376-2.544c0.36,0,0.713,0.016,1.053,0.045c0.404-2.02,1.004-3.907,1.789-5.637
	c0.545-1.244,1.215-2.418,1.979-3.464c2.309-3.155,5.605-5.108,9.289-5.502c0.473-0.05,1.258-0.075,2.344-0.075
	c1.193,0,2.023,0.029,2.537,0.087c2.996,0.335,5.969,1.678,8.598,3.88c1.092,0.896,2.115,1.945,3.027,3.107
	c5.436,6.911,5.738,17.044,0.734,24.637c-0.883,1.315-1.879,2.511-2.967,3.565c-1.195,1.162-2.521,2.168-3.904,2.975l2.262,4.434
	c0.246,0.48,0.445,0.994,0.596,1.531c1.543-0.176,3.068-0.332,4.562-0.473c0.828-1.098,1.969-1.895,3.303-2.291l0.021-0.008
	c0,0,4.945-1.208,6.563-1.364c0.062-0.01,4.056-0.11,4.056-0.11l2.324-9.201c1.113-4.151,4.355-4.957,5.322-5.103
	c0,0,5.889-0.688,6.018-0.688c3.104,0,5.744,1.699,6.896,4.434c0.283,0.63,3.818,10.878,3.818,10.878l9.049,0.373
	c0.004,0,0.008,0,0.012,0c1.248,0,5.604,0.305,7.414,4.062c1.857,3.854,0.115,7.4-2.314,9.105c-1.08,0.834-7.707,6.029-7.707,6.029
	s2.293,7.144,3.25,10.531c0.881,2.693,0.326,6.455-2.949,8.414c-2.408,1.592-3.434,2.262-3.973,2.596
	c-1.07,0.779-2.361,1.191-3.748,1.191c-0.635,0-1.307-0.092-1.994-0.271c-1.346-0.354-3.207-1.729-3.207-1.729l-0.244,23.561
	c12.174,6.484,20.857,12.912,21.838,13.646l4.599,4.234l1.31,7.098l-9.756,12.254l-3.476-3.161l-19.808,25.093l0.761,6.293
	L149.662,191.924L149.662,191.924z"/>
<path fill="#FFFFFF" d="M97.078,26.66l0.051-0.062c1.109-1.369,3.111-1.657,4.596-1.657c0.836,0,1.928,0.101,2.883,0.515
	c0.318-2.675,0.992-5.212,1.99-7.419c0.486-1.105,1.078-2.147,1.75-3.068c1.932-2.641,4.676-4.271,7.723-4.598
	c0.516-0.054,1.541-0.062,2.107-0.062c0.609,0,1.721,0.008,2.287,0.071c2.559,0.287,5.119,1.452,7.412,3.373
	c0.975,0.799,1.893,1.736,2.705,2.773c4.85,6.165,5.111,15.228,0.629,22.032c-0.791,1.18-1.682,2.246-2.656,3.192
	c-1.627,1.577-3.461,2.797-5.361,3.586c1.375,2.692,3.211,6.297,3.287,6.443c0.463,0.9,0.688,1.924,0.682,2.98
	c2.654-0.324,5.254-0.598,7.771-0.818c0.531-1.107,1.463-1.928,2.625-2.275c0,0,4.605-1.141,6.172-1.29
	c0.061-0.008,5.586-0.115,5.586-0.115l2.734-10.839c0.742-2.766,2.697-3.354,3.504-3.477c0,0,5.572-0.659,5.682-0.659
	c2.227,0,4.031,1.145,4.84,3.066c0.277,0.613,4.262,12.181,4.262,12.181l10.574,0.434c0.008,0,0.018,0,0.025,0
	c0.955,0,4.234,0.223,5.479,2.799c1.408,2.918-0.166,5.346-1.643,6.352c-1.045,0.809-8.963,7.025-8.963,7.025s2.791,8.7,3.719,12.01
	c0.636,1.926,0.263,4.52-2.034,5.85c-2.521,1.664-3.533,2.33-4.017,2.623c-0.694,0.531-1.549,0.809-2.494,0.809
	c-0.457,0-0.938-0.068-1.435-0.197c-1.362-0.361-3.118-1.973-3.118-1.973l-2.832-2.351l-0.308,29.654
	c12.713,6.645,21.722,13.326,22.742,14.09l3.881,3.585l0.985,5.368l-7.642,9.593l-3.483-3.164l-22.174,28.096l0.426,0.533
	l0.647,5.353l-8.772,11.015l0,0l-4.178-6.849c-9.25-14.047-18.106-25.179-26.359-33.136c0,0-25.568,27.908-25.601,27.947
	c-0.781,0.951-3.209,3.912-6.807,5.578c-0.654,0.305-1.338,0.557-2.027,0.752c-0.912,0.252-1.83,0.381-2.736,0.381
	c-4.566,0-9.146-4.726-9.146-4.726s-20.367-17.297-32.158-29.642c-11.121-11.637-27.121-31.885-27.688-32.588
	c-2.039-2.53-2.975-3.729-3.373-4.588c-1.537-3.317-1.043-7.252,1.252-10.086c0.393-0.611,0.881-1.152,1.451-1.615l17.916-14.4
	l-10.717-20.45l18.751-28.202l9.082,6.105c0.246,0.162,2.488,1.71,3.594,4.295c0,0,2.373,5.411,3.086,7.04
	c-1.059-8.29-0.902-14.401-0.455-18.516c0.398-3.671,1.156-6.673,1.664-7.634c0.717-1.329,1.836-2.194,3.154-2.456
	c0.25-0.052,0.543-0.083,0.84-0.083c0.08,0,26.158,5.236,26.158,5.236c2.799,0.319,3.957,1.981,4.447,3.338
	c0.479,1.321,0.406,2.576,0.082,3.691C89.664,39.054,97.078,26.66,97.078,26.66z M42.824,63.879l-3.591,5.371
	c-0.125,0.145-0.729,0.908-0.332,1.643l2.611,5.285l5.457-4.385L42.824,63.879L42.824,63.879z"/>
<linearGradient id="SVGID_1_" gradientUnits="userSpaceOnUse" x1="-199.0249" y1="773.0312" x2="-111.8019" y2="773.0312" gradientTransform="matrix(0.9073 -0.4205 0.4205 0.9073 -138.7168 -689.6455)">
	<stop  offset="0" style="stop-color:#ADE8FF"/>
	<stop  offset="1" style="stop-color:#00A5E3"/>
</linearGradient>
<path fill="url(#SVGID_1_)" d="M50.439,72.055l-9.777,7.857c0.262,0.531,0.525,1.07,0.797,1.619l9.812-7.889L50.439,72.055z"/>
<linearGradient id="SVGID_2_" gradientUnits="userSpaceOnUse" x1="-198.9585" y1="829.0234" x2="-110.1712" y2="829.0234" gradientTransform="matrix(0.9073 -0.4205 0.4205 0.9073 -138.7168 -689.6455)">
	<stop  offset="0" style="stop-color:#ADE8FF"/>
	<stop  offset="1" style="stop-color:#00A5E3"/>
</linearGradient>
<path fill="url(#SVGID_2_)" d="M33.923,85.329c0,0-10.902,8.764-16.354,13.145c-2.643,2.125-5.691,4.09-5.869,7.889
	c-0.146,3.152,2.08,5.301,3.916,7.582c1.676,2.082,3.297,4.209,4.961,6.301c10.107,12.705,20.867,24.871,32.639,36.066
	c5.424,5.16,16.695,15.021,16.695,15.021l5.559,4.778c0,0,4.533,3.74,7.523,3.437c4.182-0.422,6.916-3.678,9.557-6.562
	c2.004-2.187,26.747-29.185,26.747-29.185l0.693-2.182L33.923,85.329z"/>
<linearGradient id="SVGID_3_" gradientUnits="userSpaceOnUse" x1="-184.5488" y1="835.0322" x2="-127.4567" y2="814.2523" gradientTransform="matrix(0.9073 -0.4205 0.4205 0.9073 -138.7168 -689.6455)">
	<stop  offset="0" style="stop-color:#ADE8FF"/>
	<stop  offset="1" style="stop-color:#00ADEE"/>
</linearGradient>
<path fill="url(#SVGID_3_)" d="M34.755,86.92l-19.352,15.557c-0.264,0.213-0.467,0.465-0.609,0.738
	c-0.004,0.002-0.004,0.006-0.004,0.008c-1.348,1.492-1.752,3.699-0.854,5.639c0.363,0.785,0.904,1.438,1.547,1.93l0.643,0.854
	l60.053,62.67c0,0,4.01,4.307,7.633,3.299c3.695-1.027,6.336-4.582,6.791-5.104l27.387-29.883l0.51-1.273L34.755,86.92z"/>
<linearGradient id="SVGID_4_" gradientUnits="userSpaceOnUse" x1="-199.7646" y1="793.502" x2="-143.8804" y2="773.1617" gradientTransform="matrix(0.9073 -0.4205 0.4205 0.9073 -138.7168 -689.6455)">
	<stop  offset="0" style="stop-color:#ADE8FF"/>
	<stop  offset="1" style="stop-color:#00ADEE"/>
</linearGradient>
<path fill="url(#SVGID_4_)" d="M50.596,82.719l3.326-4.015l-2.65-5.061l-9.812,7.889c0.984,1.996,2.014,4.086,3.012,6.111
	L50.596,82.719z"/>
<linearGradient id="SVGID_5_" gradientUnits="userSpaceOnUse" x1="-144.9917" y1="851.8828" x2="-132.1468" y2="859.2988" gradientTransform="matrix(0.9073 -0.4205 0.4205 0.9073 -138.7168 -689.6455)">
	<stop  offset="0" style="stop-color:#C9F0FF"/>
	<stop  offset="1" style="stop-color:#6BCAEE"/>
</linearGradient>
<path fill="url(#SVGID_5_)" d="M98.826,151.707c0.586-0.27,1.127-0.625,1.611-1.053c2.93-2.604,3.027-7.293,0.213-10.465
	c-2.285-2.578-5.906-3.439-8.805-2.098c-0.586,0.271-1.127,0.629-1.611,1.057c-2.93,2.598-3.025,7.293-0.213,10.465
	C92.307,152.191,95.928,153.051,98.826,151.707z"/>
<linearGradient id="SVGID_6_" gradientUnits="userSpaceOnUse" x1="-143.4375" y1="853.3271" x2="-133.406" y2="857.9767" gradientTransform="matrix(0.9073 -0.4205 0.4205 0.9073 -138.7168 -689.6455)">
	<stop  offset="0" style="stop-color:#3AA5DE"/>
	<stop  offset="1" style="stop-color:#A2D8EB"/>
</linearGradient>
<path fill="url(#SVGID_6_)" d="M99.389,149.285c2.167-1.92,2.181-5.445,0.029-7.871c-2.15-2.426-5.65-2.832-7.818-0.912
	c-2.166,1.924-2.18,5.447-0.029,7.871C93.723,150.799,97.221,151.207,99.389,149.285z"/>
<linearGradient id="SVGID_7_" gradientUnits="userSpaceOnUse" x1="-189.1006" y1="803.6055" x2="-126.7618" y2="832.4987" gradientTransform="matrix(0.9073 -0.4205 0.4205 0.9073 -138.7168 -689.6455)">
	<stop  offset="0" style="stop-color:#FFFFFF"/>
	<stop  offset="0.1776" style="stop-color:#EDFAFE"/>
	<stop  offset="0.5357" style="stop-color:#BDECFD"/>
	<stop  offset="1" style="stop-color:#76D8FB"/>
</linearGradient>
<path fill="url(#SVGID_7_)" d="M62.978,92.404l-13.194-4.142l-22.156,17.806c0,0,10.613,12.306,20.439,22.771
	c9.824,10.467,21.598,20.307,21.598,20.307c0.172,0.176,0.371,0.312,0.586,0.404c0.213,0.096,0.441,0.146,0.67,0.15
	c0.23,0.006,0.461-0.031,0.676-0.113c0.217-0.08,0.418-0.203,0.596-0.375l19.836-18.939l-3.965-8.6L62.978,92.404z"/>
<linearGradient id="SVGID_8_" gradientUnits="userSpaceOnUse" x1="-183.8726" y1="784.3984" x2="-127.9108" y2="784.3984" gradientTransform="matrix(0.9073 -0.4205 0.4205 0.9073 -138.7168 -689.6455)">
	<stop  offset="0" style="stop-color:#3AA5DE"/>
	<stop  offset="0.0107" style="stop-color:#3CA6DE"/>
	<stop  offset="0.2102" style="stop-color:#61B8E3"/>
	<stop  offset="0.4104" style="stop-color:#7DC6E6"/>
	<stop  offset="0.6094" style="stop-color:#92D0E9"/>
	<stop  offset="0.8066" style="stop-color:#9ED6EA"/>
	<stop  offset="1" style="stop-color:#A2D8EB"/>
</linearGradient>
<path fill="url(#SVGID_8_)" d="M49.855,85.572l-4.59,3.688c0.316,0.643,0.627,1.271,0.928,1.887l3.592-2.887
	C49.715,87.363,49.738,86.457,49.855,85.572z"/>
<linearGradient id="SVGID_9_" gradientUnits="userSpaceOnUse" x1="-183.8711" y1="788.9805" x2="-127.9158" y2="788.9805" gradientTransform="matrix(0.9073 -0.4205 0.4205 0.9073 -138.7168 -689.6455)">
	<stop  offset="0" style="stop-color:#3AA5DE"/>
	<stop  offset="0.0107" style="stop-color:#3CA6DE"/>
	<stop  offset="0.2102" style="stop-color:#61B8E3"/>
	<stop  offset="0.4104" style="stop-color:#7DC6E6"/>
	<stop  offset="0.6094" style="stop-color:#92D0E9"/>
	<stop  offset="0.8066" style="stop-color:#9ED6EA"/>
	<stop  offset="1" style="stop-color:#A2D8EB"/>
</linearGradient>
<path fill="url(#SVGID_9_)" d="M27.555,103.498c-0.186,0.15-0.328,0.328-0.43,0.52c-0.102,0.195-0.16,0.402-0.174,0.613
	c-0.016,0.211,0.014,0.424,0.086,0.627c0.074,0.203,0.193,0.396,0.357,0.566l0.236,0.244l12.074-9.707l-0.971-1.852L27.555,103.498z
	"/>
<linearGradient id="SVGID_10_" gradientUnits="userSpaceOnUse" x1="-195.1782" y1="819.8594" x2="-151.5287" y2="776.2098" gradientTransform="matrix(0.9073 -0.4205 0.4205 0.9073 -138.7168 -689.6455)">
	<stop  offset="0" style="stop-color:#C9F0FF"/>
	<stop  offset="1" style="stop-color:#6BCAEE"/>
</linearGradient>
<path fill="url(#SVGID_10_)" d="M44.471,87.643l0.795,1.619l4.59-3.689l0.74-2.854L44.471,87.643z"/>
<linearGradient id="SVGID_11_" gradientUnits="userSpaceOnUse" x1="-179.3018" y1="835.7402" x2="-135.6513" y2="792.0897" gradientTransform="matrix(0.9073 -0.4205 0.4205 0.9073 -138.7168 -689.6455)">
	<stop  offset="0" style="stop-color:#C9F0FF"/>
	<stop  offset="1" style="stop-color:#6BCAEE"/>
</linearGradient>
<path fill="url(#SVGID_11_)" d="M71.6,149.588c-0.215,0.082-0.445,0.119-0.676,0.113c-0.229-0.006-0.457-0.057-0.67-0.15
	c-0.215-0.094-0.414-0.229-0.586-0.406c0,0-11.773-9.84-21.598-20.305c-9.826-10.467-20.439-22.771-20.439-22.771l-0.236-0.242
	c-0.164-0.17-0.283-0.363-0.357-0.566c-0.072-0.201-0.102-0.416-0.086-0.627c0.014-0.211,0.072-0.418,0.174-0.611
	c0.102-0.191,0.244-0.369,0.43-0.521l11.18-8.986l-0.832-1.59l-11.463,9.211c-0.359,0.299-0.652,0.654-0.879,1.074
	c-0.213,0.412-0.336,0.854-0.365,1.295c-0.029,0.396,0.016,0.785,0.129,1.16l0.453,0.951c0.105,0.152,0.223,0.303,0.355,0.438
	c0,0,11.229,12.951,20.654,22.994c9.408,10.018,20.719,19.58,21.686,20.393c0.312,0.309,0.674,0.551,1.072,0.725
	c0.42,0.186,0.865,0.285,1.336,0.299c0.461,0.014,0.912-0.062,1.33-0.221c0.088-0.031,0.172-0.068,0.256-0.105
	c0.352-0.162,0.668-0.381,0.945-0.646L94.5,130.35c-0.824-0.076-1.621-0.105-2.385-0.094c-0.027,0.006-0.055,0.012-0.084,0.016
	l-19.836,18.941C72.018,149.385,71.816,149.508,71.6,149.588z"/>
<linearGradient id="SVGID_12_" gradientUnits="userSpaceOnUse" x1="-196.4512" y1="832.3818" x2="-167.0591" y2="832.3818" gradientTransform="matrix(0.9073 -0.4205 0.4205 0.9073 -138.7168 -689.6455)">
	<stop  offset="0" style="stop-color:#3AA5DE"/>
	<stop  offset="1" style="stop-color:#A2D8EB"/>
</linearGradient>
<path fill="url(#SVGID_12_)" d="M19.393,115.904c7.934,10.113,16.199,19.992,25.105,29.27c9.617,10.018,19.996,19.221,30.568,28.207
	c0.852-1.047,1.611-2.131,0.346-3.219c-0.65-0.559-1.295-1.125-1.936-1.693c-3.264-2.895-6.459-5.867-9.619-8.873
	c-10.428-9.912-20.48-20.145-29.814-31.096c-3.898-4.572-7.725-9.209-11.49-13.891c-0.898-1.119-1.795-2.24-2.684-3.365
	c-1.188-1.502-2.533-0.531-3.744,0.4C17.201,113.074,18.293,114.492,19.393,115.904"/>
<linearGradient id="SVGID_13_" gradientUnits="userSpaceOnUse" x1="-742.2285" y1="-281.6123" x2="-742.2285" y2="-388.5609" gradientTransform="matrix(0.2388 -0.9711 -0.9711 -0.2388 -19.9312 -645.9684)">
	<stop  offset="0" style="stop-color:#CBEEFB"/>
	<stop  offset="0.1436" style="stop-color:#97D3DC"/>
	<stop  offset="0.2898" style="stop-color:#69BBC1"/>
	<stop  offset="0.4368" style="stop-color:#43A8AB"/>
	<stop  offset="0.5823" style="stop-color:#269999"/>
	<stop  offset="0.7256" style="stop-color:#118E8D"/>
	<stop  offset="0.866" style="stop-color:#048785"/>
	<stop  offset="1" style="stop-color:#008583"/>
</linearGradient>
<path fill="url(#SVGID_13_)" d="M155.625,172.264l-51.594-46.002l-12.774,3.993c11.31-0.762,29.816,7.888,56.894,49.015l2.209,3.616
	l5.688-7.139L155.625,172.264z"/>
<linearGradient id="SVGID_14_" gradientUnits="userSpaceOnUse" x1="-728.6826" y1="-280.9658" x2="-728.6826" y2="-388.6979" gradientTransform="matrix(0.2388 -0.9711 -0.9711 -0.2388 -19.9312 -645.9684)">
	<stop  offset="0" style="stop-color:#CBEEFB"/>
	<stop  offset="0.1436" style="stop-color:#97D3DC"/>
	<stop  offset="0.2898" style="stop-color:#69BBC1"/>
	<stop  offset="0.4368" style="stop-color:#43A8AB"/>
	<stop  offset="0.5823" style="stop-color:#269999"/>
	<stop  offset="0.7256" style="stop-color:#118E8D"/>
	<stop  offset="0.866" style="stop-color:#048785"/>
	<stop  offset="1" style="stop-color:#008583"/>
</linearGradient>
<path fill="url(#SVGID_14_)" d="M187.607,132.113l-9.371,2.976l-25.512,33.621c0,0,0.727,0.847,1.615,1.955l25.225-31.953
	c0.689,0.578,0.957,0.733,3.549,3.099l5.1-6.399L187.607,132.113z"/>
<linearGradient id="SVGID_15_" gradientUnits="userSpaceOnUse" x1="-728.2051" y1="-280.0845" x2="-728.2051" y2="-387.3286" gradientTransform="matrix(0.2388 -0.9711 -0.9711 -0.2388 -19.9312 -645.9684)">
	<stop  offset="0" style="stop-color:#CBEEFB"/>
	<stop  offset="0.1436" style="stop-color:#97DBE4"/>
	<stop  offset="0.2898" style="stop-color:#69CAD0"/>
	<stop  offset="0.4368" style="stop-color:#43BCBF"/>
	<stop  offset="0.5823" style="stop-color:#26B1B2"/>
	<stop  offset="0.7256" style="stop-color:#11A9A8"/>
	<stop  offset="0.866" style="stop-color:#04A5A3"/>
	<stop  offset="1" style="stop-color:#00A3A1"/>
</linearGradient>
<path fill="url(#SVGID_15_)" d="M184.592,129.316c-0.504-0.377-10.135-7.615-23.816-14.607l-67.028,1.498l-5.561,5.372l-3.773,7.354
	c-2.578,1.451-5.129,3.436-7.639,6.014c0,0-3.031,8.182-0.615,5.289c3.695-4.43,10.051-10.043,18.648-10.27
	c15.681-0.408,33.982,15.436,52.925,45.82l2.207,3.619l5.688-7.145c-1.601-1.975-2.354-2.943-2.899-3.553l26.233-33.293
	c0.815,0.391,0.959,0.734,3.552,3.096l5.098-6.398L184.592,129.316z"/>
<linearGradient id="SVGID_16_" gradientUnits="userSpaceOnUse" x1="-724.4067" y1="-374.9897" x2="-724.4067" y2="-338.5796" gradientTransform="matrix(0.2388 -0.9711 -0.9711 -0.2388 -19.9312 -645.9684)">
	<stop  offset="0" style="stop-color:#FFFFFF"/>
	<stop  offset="1" style="stop-color:#76D8FB"/>
</linearGradient>
<path fill="url(#SVGID_16_)" d="M146.887,127.221L133.9,146.393c7.432,7.449,13.012,14.854,15.381,18.123l25.791-33.074
	c-5.033-3.775-9.824-7.033-14.391-9.85L146.887,127.221z"/>
<linearGradient id="SVGID_17_" gradientUnits="userSpaceOnUse" x1="-742.0537" y1="-356.6289" x2="-703.295" y2="-356.6289" gradientTransform="matrix(0.2388 -0.9711 -0.9711 -0.2388 -19.9312 -645.9684)">
	<stop  offset="0" style="stop-color:#FFFFFF"/>
	<stop  offset="1" style="stop-color:#76D8FB"/>
</linearGradient>
<path fill="url(#SVGID_17_)" d="M149.334,159.838l21.715-27.848c-4.367-3.188-8.686-6.066-12.914-8.629l-8.406,4.722l-12.183,17.981
	C142.473,151.176,146.551,156.195,149.334,159.838z"/>
<linearGradient id="SVGID_18_" gradientUnits="userSpaceOnUse" x1="-718.8262" y1="-346.5469" x2="-718.8262" y2="-318.8759" gradientTransform="matrix(0.2388 -0.9711 -0.9711 -0.2388 -19.9312 -645.9684)">
	<stop  offset="0" style="stop-color:#FFFFFF"/>
	<stop  offset="1" style="stop-color:#76D8FB"/>
</linearGradient>
<path fill="url(#SVGID_18_)" d="M124.848,119.457l-7.863,13.205c5.35,3.273,9.66,7.055,14.121,11.326l12.057-18.496l-9.125-5.889
	L124.848,119.457z"/>
<linearGradient id="SVGID_19_" gradientUnits="userSpaceOnUse" x1="-727.7036" y1="-330.998" x2="-698.5361" y2="-330.998" gradientTransform="matrix(0.2388 -0.9711 -0.9711 -0.2388 -19.9312 -645.9684)">
	<stop  offset="0" style="stop-color:#FFFFFF"/>
	<stop  offset="1" style="stop-color:#76D8FB"/>
</linearGradient>
<path fill="url(#SVGID_19_)" d="M130.688,140.475l10.35-15.871c-3.898-1.588-8.646-3.266-13.877-4.596l-7.102,11.924
	C124.088,134.604,127.545,137.557,130.688,140.475z"/>
<linearGradient id="SVGID_20_" gradientUnits="userSpaceOnUse" x1="-715.2876" y1="-322.7588" x2="-715.2876" y2="-301.4507" gradientTransform="matrix(0.2388 -0.9711 -0.9711 -0.2388 -19.9312 -645.9684)">
	<stop  offset="0" style="stop-color:#FFFFFF"/>
	<stop  offset="1" style="stop-color:#76D8FB"/>
</linearGradient>
<path fill="url(#SVGID_20_)" d="M105.007,117.566l-4.327,8.433c4.379,0.676,8.752,2.377,13.045,4.76l6.959-12.141l-6.791-2.302
	L105.007,117.566z"/>
<linearGradient id="SVGID_21_" gradientUnits="userSpaceOnUse" x1="-720.2607" y1="-310.4688" x2="-697.9523" y2="-310.4688" gradientTransform="matrix(0.2388 -0.9711 -0.9711 -0.2388 -19.9312 -645.9684)">
	<stop  offset="0" style="stop-color:#FFFFFF"/>
	<stop  offset="1" style="stop-color:#76D8FB"/>
</linearGradient>
<path fill="url(#SVGID_21_)" d="M113.068,128.477l5.824-10.16c-3.873-0.596-7.889-0.918-11.934-0.826l-3.73,7.271
	C106.395,125.49,109.689,126.736,113.068,128.477z"/>
<linearGradient id="SVGID_22_" gradientUnits="userSpaceOnUse" x1="-718.9722" y1="-304.21" x2="-718.9722" y2="-288.7786" gradientTransform="matrix(0.2388 -0.9711 -0.9711 -0.2388 -19.9312 -645.9684)">
	<stop  offset="0" style="stop-color:#FFFFFF"/>
	<stop  offset="1" style="stop-color:#76D8FB"/>
</linearGradient>
<path fill="url(#SVGID_22_)" d="M90.884,120.453l-3.637,7.088c3.645-1.516,7.33-2.045,11.02-1.803l4.086-7.963l-6.363-0.826
	L90.884,120.453z"/>
<linearGradient id="SVGID_23_" gradientUnits="userSpaceOnUse" x1="-723.0156" y1="-295.1836" x2="-701.2208" y2="-295.1836" gradientTransform="matrix(0.2388 -0.9711 -0.9711 -0.2388 -19.9312 -645.9684)">
	<stop  offset="0" style="stop-color:#FFFFFF"/>
	<stop  offset="1" style="stop-color:#76D8FB"/>
</linearGradient>
<path fill="url(#SVGID_23_)" d="M97.592,124.566l3.396-6.617c-2.99,0.396-5.842,1.043-8.543,1.945l-2.893,5.637
	C92.143,124.787,94.834,124.463,97.592,124.566z"/>
<linearGradient id="SVGID_24_" gradientUnits="userSpaceOnUse" x1="148.8223" y1="773.2998" x2="101.8089" y2="691.8701" gradientTransform="matrix(0.9997 -0.0257 0.0257 0.9997 2.2838 -641.6785)">
	<stop  offset="0" style="stop-color:#5C7480"/>
	<stop  offset="0.0487" style="stop-color:#738892"/>
	<stop  offset="0.1616" style="stop-color:#A3B0B7"/>
	<stop  offset="0.2689" style="stop-color:#C9D0D4"/>
	<stop  offset="0.3678" style="stop-color:#E4E7E9"/>
	<stop  offset="0.4552" style="stop-color:#F4F5F6"/>
	<stop  offset="0.522" style="stop-color:#FAFAFA"/>
	<stop  offset="0.7181" style="stop-color:#F8F8F9"/>
	<stop  offset="0.7887" style="stop-color:#F1F3F3"/>
	<stop  offset="0.8391" style="stop-color:#E6E9EA"/>
	<stop  offset="0.8798" style="stop-color:#D5DADD"/>
	<stop  offset="0.9147" style="stop-color:#BFC8CC"/>
	<stop  offset="0.9456" style="stop-color:#A3B1B7"/>
	<stop  offset="0.9728" style="stop-color:#84969F"/>
	<stop  offset="0.9977" style="stop-color:#607783"/>
	<stop  offset="1" style="stop-color:#5C7480"/>
</linearGradient>
<path fill="url(#SVGID_24_)" d="M119.787,63.203l21.377-3.471l-3.842-3.775c-4.854,0.377-10.545,0.922-14.744,1.502
	C122.566,57.475,121.025,61.229,119.787,63.203z"/>
<linearGradient id="SVGID_25_" gradientUnits="userSpaceOnUse" x1="146.8428" y1="766.3223" x2="103.1285" y2="690.6071" gradientTransform="matrix(0.9997 -0.0257 0.0257 0.9997 2.2838 -641.6785)">
	<stop  offset="0" style="stop-color:#5C7480"/>
	<stop  offset="0.0487" style="stop-color:#738892"/>
	<stop  offset="0.1616" style="stop-color:#A3B0B7"/>
	<stop  offset="0.2689" style="stop-color:#C9D0D4"/>
	<stop  offset="0.3678" style="stop-color:#E4E7E9"/>
	<stop  offset="0.4552" style="stop-color:#F4F5F6"/>
	<stop  offset="0.522" style="stop-color:#FAFAFA"/>
	<stop  offset="0.7181" style="stop-color:#F8F8F9"/>
	<stop  offset="0.7887" style="stop-color:#F1F3F3"/>
	<stop  offset="0.8391" style="stop-color:#E6E9EA"/>
	<stop  offset="0.8798" style="stop-color:#D5DADD"/>
	<stop  offset="0.9147" style="stop-color:#BFC8CC"/>
	<stop  offset="0.9456" style="stop-color:#A3B1B7"/>
	<stop  offset="0.9728" style="stop-color:#84969F"/>
	<stop  offset="0.9977" style="stop-color:#607783"/>
	<stop  offset="1" style="stop-color:#5C7480"/>
</linearGradient>
<path fill="url(#SVGID_25_)" d="M159.232,75.07L155,79.103c0,0-0.602,46.374-1.352,47.351l7.043-4.894l0.451-43.919L159.232,75.07z"
	/>
<linearGradient id="SVGID_26_" gradientUnits="userSpaceOnUse" x1="45.103" y1="706.6523" x2="135.1909" y2="706.6523" gradientTransform="matrix(0.9997 -0.0257 0.0257 0.9997 2.2838 -641.6785)">
	<stop  offset="0" style="stop-color:#B5E5FB"/>
	<stop  offset="0.1373" style="stop-color:#CEEEFC"/>
	<stop  offset="0.3214" style="stop-color:#E9F7FE"/>
	<stop  offset="0.4849" style="stop-color:#F9FDFF"/>
	<stop  offset="0.6099" style="stop-color:#FFFFFF"/>
</linearGradient>
<path fill="url(#SVGID_26_)" d="M118.514,64.192c9.12-1.822,18.278-2.596,23.521-2.926c-0.613-0.506-1.242-1.014-1.871-1.533
	c-4.924,0.363-12.787,1.084-20.408,2.52C119.748,62.264,118.555,64.129,118.514,64.192z"/>
<linearGradient id="SVGID_27_" gradientUnits="userSpaceOnUse" x1="48.3496" y1="749.709" x2="134.6143" y2="749.709" gradientTransform="matrix(0.9997 -0.0257 0.0257 0.9997 2.2838 -641.6785)">
	<stop  offset="0" style="stop-color:#B5E5FB"/>
	<stop  offset="0.1373" style="stop-color:#CEEEFC"/>
	<stop  offset="0.3214" style="stop-color:#E9F7FE"/>
	<stop  offset="0.4849" style="stop-color:#F9FDFF"/>
	<stop  offset="0.6099" style="stop-color:#FFFFFF"/>
</linearGradient>
<path fill="url(#SVGID_27_)" d="M154.863,122.945l-0.016-0.605L155,79.104l-84.952,29.16c0.418,10.491,3.1,19.351,3.334,20.104
	l1.043,3.352l2.51-2.434c7.756-7.525,17.785-11.498,29.812-11.81c16.043-0.41,31.678,5.728,39.644,9.463
	c1.021,0.619,1.967,1,2.86,1.153l2.181-0.098l2.217-1.539c0.75-0.978,1.149-2.244,1.211-3.459L154.863,122.945z"/>
<linearGradient id="SVGID_28_" gradientUnits="userSpaceOnUse" x1="51.5605" y1="736.5537" x2="132.7621" y2="743.6579" gradientTransform="matrix(0.9997 -0.0257 0.0257 0.9997 2.2838 -641.6785)">
	<stop  offset="0" style="stop-color:#C4EAFB"/>
	<stop  offset="0.0303" style="stop-color:#CAE6E6"/>
	<stop  offset="0.1069" style="stop-color:#D6DCB6"/>
	<stop  offset="0.1798" style="stop-color:#E0D490"/>
	<stop  offset="0.2469" style="stop-color:#E7CF75"/>
	<stop  offset="0.3063" style="stop-color:#EBCB65"/>
	<stop  offset="0.3516" style="stop-color:#EDCA5F"/>
	<stop  offset="0.6923" style="stop-color:#FFD966"/>
	<stop  offset="1" style="stop-color:#DEBD58"/>
</linearGradient>
<path fill="url(#SVGID_28_)" d="M100.535,83.148l-28.031,29.054c0.859,8.455,2.877,14.94,2.877,14.94
	c18.035-17.504,45.338-13.783,66.639-5.082c1.186,0.481,2.357,0.985,3.523,1.508c1.254,0.562,2.521,1.435,3.854,1.746
	c2.002,0.476,3.104-1.196,3.238-2.981l0.104-57.727L100.535,83.148z"/>
<path fill="#C9A64B" d="M87.349,100.521c0,0-2.878,2.727-2.885,2.731c7.674,2.951,16.07,7.896,16.07,7.896
	c17.688-20.809,34.649-35.299,47.391-42.902c0.005-0.016,0.007-0.033,0.011-0.049c0.106-0.486,1.317-3.457,1.317-3.457
	L87.349,100.521z"/>
<linearGradient id="SVGID_29_" gradientUnits="userSpaceOnUse" x1="58.2334" y1="727.8906" x2="132.4112" y2="727.8906" gradientTransform="matrix(0.9997 -0.0257 0.0257 0.9997 2.2838 -641.6785)">
	<stop  offset="0" style="stop-color:#FAF020"/>
	<stop  offset="0.138" style="stop-color:#FBEB2E"/>
	<stop  offset="0.3971" style="stop-color:#FEE052"/>
	<stop  offset="0.522" style="stop-color:#FFD966"/>
	<stop  offset="1" style="stop-color:#CCAF53"/>
</linearGradient>
<path fill="url(#SVGID_29_)" d="M87.243,100.766c6.752,1.652,12.143,4.779,12.143,4.779c15.631-19.57,34.039-31.998,48.262-39.346
	l-5.254-4.893c-2.023,0.137-5.045,0.309-7.062,0.516c-5.305,0.545-11.102,1.324-16.332,2.369L87.243,100.766z"/>
<linearGradient id="SVGID_30_" gradientUnits="userSpaceOnUse" x1="149.8848" y1="703.1299" x2="179.5098" y2="703.1299" gradientTransform="matrix(1 0 0 1 5 -642)">
	<stop  offset="0" style="stop-color:#855A00"/>
	<stop  offset="0.054" style="stop-color:#8F650C"/>
	<stop  offset="0.2468" style="stop-color:#B08834"/>
	<stop  offset="0.4003" style="stop-color:#C59D4C"/>
	<stop  offset="0.4945" style="stop-color:#CCA555"/>
	<stop  offset="0.5908" style="stop-color:#C59D4C"/>
	<stop  offset="0.7477" style="stop-color:#B08834"/>
	<stop  offset="0.9448" style="stop-color:#8F650C"/>
	<stop  offset="1" style="stop-color:#855A00"/>
</linearGradient>
<path fill="url(#SVGID_30_)" d="M176.322,82.162c1.557-0.846,0.875-2.777,0.875-2.777c-1.287-4.596-2.818-9.137-4.25-13.689
	c-0.445,0.178,10.459-8.287,10.498-8.316c0,0,1.723-1.066,0.785-3.008c-0.645-1.336-3.199-1.285-3.199-1.285
	c-3.828-0.156-12.398-0.506-12.398-0.506c-1.242-3.553-4.461-13.108-4.781-13.712c-0.549-1.352-1.863-1.49-2.566-1.455l-0.02-0.009
	l-5.074,0.631c-0.562,0.085-1.041,0.657-1.307,1.647l17.318,45.172L176.322,82.162z"/>
<linearGradient id="SVGID_31_" gradientUnits="userSpaceOnUse" x1="132.4189" y1="695.6914" x2="147.2754" y2="695.6914" gradientTransform="matrix(1 0 0 1 5 -642)">
	<stop  offset="0" style="stop-color:#855A00"/>
	<stop  offset="0.054" style="stop-color:#8F650C"/>
	<stop  offset="0.2468" style="stop-color:#B08834"/>
	<stop  offset="0.4003" style="stop-color:#C59D4C"/>
	<stop  offset="0.4945" style="stop-color:#CCA555"/>
	<stop  offset="0.5908" style="stop-color:#C59D4C"/>
	<stop  offset="0.7477" style="stop-color:#B08834"/>
	<stop  offset="0.9448" style="stop-color:#8F650C"/>
	<stop  offset="1" style="stop-color:#855A00"/>
</linearGradient>
<path fill="url(#SVGID_31_)" d="M152.275,53.813l-0.637-1.445c-2.302,0.012-4.603,0.031-6.9,0.08
	c-0.063,0.004-0.422,0.027-0.467,0.031c0.019-0.004,0.017-0.004-0.002,0c-1.343,0.105-5.713,1.199-5.713,1.199
	c-0.63,0.188-0.998,0.715-1.138,1.336C137.645,54.383,152.275,53.813,152.275,53.813z"/>
<linearGradient id="SVGID_32_" gradientUnits="userSpaceOnUse" x1="143.2031" y1="721.0137" x2="154.2109" y2="721.0137" gradientTransform="matrix(1 0 0 1 5 -642)">
	<stop  offset="0" style="stop-color:#855A00"/>
	<stop  offset="0.054" style="stop-color:#8F650C"/>
	<stop  offset="0.2468" style="stop-color:#B08834"/>
	<stop  offset="0.4003" style="stop-color:#C59D4C"/>
	<stop  offset="0.4945" style="stop-color:#CCA555"/>
	<stop  offset="0.5908" style="stop-color:#C59D4C"/>
	<stop  offset="0.7477" style="stop-color:#B08834"/>
	<stop  offset="0.9448" style="stop-color:#8F650C"/>
	<stop  offset="1" style="stop-color:#855A00"/>
</linearGradient>
<path fill="url(#SVGID_32_)" d="M149.164,82.07c-0.322,0.23-0.643,0.445-0.961,0.602c0.154-0.053,0.311-0.117,0.465-0.203
	c0.152-0.084,3.484-1.344,4.787-2.332c1.975-1.248,3.873-2.645,5.756-4.061c-0.291-0.24-0.582-0.48-0.873-0.721
	C155.287,77.602,152.24,79.857,149.164,82.07z"/>
<path fill="#855A00" d="M180.039,56.457h-0.006c-0.736-2.619-5.627-1.959-7.709-2.053c-2.859-0.127-5.719-0.254-8.58-0.383
	c-1.576-4.512-3.152-9.021-4.729-13.532c-0.666-1.906-3.326-3.56-4.133-0.807c-1.131,4.214-3.486,13.65-3.607,14.13
	c-1.89-0.006-3.781-0.016-5.672-0.014c-2.225,0.002-4.445,0.02-6.664,0.084c-0.799,0.023-1.295,0.5-1.521,1.131
	c-0.297,0.832-0.121,1.928,0.461,2.596c1.391,1.6,3.363,2.943,4.947,4.346c1.801,1.596,3.604,3.191,5.402,4.787
	c-0.793,3.6-1.582,7.201-2.357,10.805c-0.305,1.412-1.029,3.172-0.062,4.486c0.785,1.064,1.58,1.041,2.393,0.639
	c0.316-0.156,0.639-0.371,0.961-0.602c3.076-2.213,6.123-4.469,9.174-6.715c0.291,0.24,6.658,5.506,9.568,7.879
	c0.717,0.586,1.59,1.602,2.557,1.855c0.896,0.236,1.466,0.074,1.811-0.307c0.459-0.506,0.516-1.4,0.418-2.266
	c-0.062-0.555-0.189-1.098-0.316-1.518c-0.486-1.598-0.982-3.193-1.477-4.789c-0.873-2.818-1.752-5.633-2.641-8.447
	c3.523-2.775,7.066-5.533,10.529-8.387C179.738,58.594,180.416,57.84,180.039,56.457z M178.459,57.381
	c-3.74,3.471-7.99,6.492-11.984,9.662c0.484,1.564,3.319,10.636,3.84,12.331c0.291,0.947,0.578,1.896,0.863,2.846
	c0.07,0.234,0.143,0.469,0.213,0.703c-0.014,0.211-0.125,0.398-0.285,0.506c-0.098,0.066-0.215,0.102-0.338,0.092
	c-0.053-0.004-0.105-0.014-0.16-0.035c-4.273-3.141-8.25-6.742-12.354-10.098c-3.115,2.299-6.166,4.729-9.338,6.957
	c-0.445,0.312-0.891,0.619-1.34,0.922c-0.064,0.043-0.131,0.09-0.195,0.133c-0.123,0.025-0.24,0-0.344-0.055
	c-0.172-0.09-0.307-0.266-0.371-0.455c-0.01-0.045-0.023-0.084-0.031-0.137c0.865-4.873,2.119-9.691,3.17-14.527
	c-2.697-2.371-8.781-7.636-9.306-8.056c-0.942-0.75-2.112-1.822-1.881-2.438c0.004-0.012,0.01-0.025,0.016-0.037
	c0.015-0.035,0.033-0.066,0.06-0.098c0.043-0.049,0.093-0.098,0.16-0.137c2.834-0.125,5.688-0.113,8.535-0.08
	c1.661,0.02,3.323,0.045,4.979,0.061c0.428-1.623,3.431-13.433,3.901-15.182c0.008-0.032,0.017-0.065,0.024-0.097
	c0.276-0.455,0.539-0.43,0.763-0.216c0.312,0.3,0.545,0.968,0.635,1.229c0.606,1.748,3.973,11.394,5.043,14.471
	c3.72,0.172,7.438,0.346,11.158,0.518C174.387,56.188,179.148,55.812,178.459,57.381z"/>
<linearGradient id="SVGID_33_" gradientUnits="userSpaceOnUse" x1="133.5889" y1="703.6895" x2="173.5166" y2="703.6895" gradientTransform="matrix(1 0 0 1 5 -642)">
	<stop  offset="0" style="stop-color:#FDFF94"/>
	<stop  offset="1" style="stop-color:#F5D900"/>
</linearGradient>
<path fill="url(#SVGID_33_)" d="M173.668,56.18c-3.645-0.178-7.289-0.355-10.936-0.533c-1.07-3.076-2.146-6.152-3.217-9.228
	c-0.607-1.748-1.221-3.495-1.826-5.243c-0.09-0.261-0.324-0.929-0.635-1.229c-0.092-0.06-0.182-0.094-0.271-0.092
	c-0.188,0.003-0.357,0.159-0.52,0.404c-0.471,1.749-0.922,3.503-1.369,5.258c-0.002,0.014-0.008,0.035-0.01,0.046
	c-0.428,1.665-0.846,3.331-1.268,4.997c-0.414,1.629-0.828,3.258-1.256,4.881c-4.49-0.045-9.025-0.178-13.514,0.02
	c-0.068,0.039-0.117,0.088-0.16,0.137c-0.025,0.031-0.045,0.062-0.061,0.098c-0.006,0.012-0.012,0.025-0.018,0.037
	c-0.186,0.588,0.898,1.631,1.883,2.438c0.523,0.42,6.681,5.742,9.306,8.056c-1.051,4.836-2.305,9.654-3.17,14.527
	c0.009,0.053,0.021,0.092,0.031,0.137c0.063,0.189,0.198,0.365,0.371,0.455c0.153,0.039,0.34,0.004,0.538-0.078
	c0.449-0.303,0.896-0.609,1.341-0.922c0.196-0.168,6.364-4.763,9.338-6.957c4.104,3.355,8.078,6.957,12.354,10.098
	c0.054,0.021,0.106,0.031,0.16,0.035c0.122,0.01,0.239-0.025,0.338-0.092c0.178-0.199,0.17-0.66,0.071-1.209
	c-0.284-0.949-0.571-1.898-0.862-2.846c-0.783-2.551-1.58-5.096-2.377-7.643c-0.49-1.562-0.979-3.125-1.463-4.689
	c3.993-3.17,8.243-6.191,11.983-9.662C179.135,55.842,174.197,56.205,173.668,56.18z"/>
<linearGradient id="SVGID_34_" gradientUnits="userSpaceOnUse" x1="57.0723" y1="704.8457" x2="126.2905" y2="704.8457" gradientTransform="matrix(1 0 0 1 5 -642)">
	<stop  offset="0" style="stop-color:#C9EBFB"/>
	<stop  offset="0.2802" style="stop-color:#B5E5FB"/>
	<stop  offset="1" style="stop-color:#1774A3"/>
</linearGradient>
<path fill="url(#SVGID_34_)" d="M62.478,92.902c0,0,5.143,11.965,7.883,17.87c0.146,0.315,0.674,1.957,1.094,1.963
	c0.541,0.009,1.596,0.226,2.047-0.137c2.15-1.613,4.18-3.429,6.217-5.181c11.178-9.598,21.938-19.666,31.019-31.303
	c2.537-3.236,4.955-6.562,7.253-9.973c1.266-1.893,2.493-3.809,3.653-5.77c0.785-1.326,1.858-2.818,2.244-4.309
	c0.627-2.428-1.078-4.703-2.134-6.77c-0.953-1.87-1.903-3.739-2.856-5.609c5.763-0.7,10.338-5.946,11.806-11.312
	c1.489-5.453,0.133-11.543-3.916-15.563c-3.42-3.396-9.384-5.288-13.884-2.759c-5.305,2.982-6.479,10.862-6.223,16.348
	c-1.037-0.719-2.074-1.439-3.111-2.158c-1.047-0.729-3.874-1.029-4.786,0.096c-3.18,4.479-5.838,9.439-8.52,14.22
	c-2.537,4.526-4.93,9.123-7.535,13.611c-1.408,2.422-2.811,4.848-4.213,7.271L62.478,92.902z"/>
<linearGradient id="SVGID_35_" gradientUnits="userSpaceOnUse" x1="57.9014" y1="704.5957" x2="121.0943" y2="704.5957" gradientTransform="matrix(1 0 0 1 5 -642)">
	<stop  offset="0" style="stop-color:#ABE3FF"/>
	<stop  offset="0.1381" style="stop-color:#A5E0FD"/>
	<stop  offset="0.3157" style="stop-color:#95D6F6"/>
	<stop  offset="0.515" style="stop-color:#7BC6EA"/>
	<stop  offset="0.73" style="stop-color:#56B0DA"/>
	<stop  offset="0.9553" style="stop-color:#2793C6"/>
	<stop  offset="1" style="stop-color:#1D8DC2"/>
</linearGradient>
<path fill="url(#SVGID_35_)" d="M114.164,39.146c0.297-0.01,0.65,0.045,1.143,0.123c2.342,0.371,4.971-0.613,7.146-2.797
	c0.592-0.594,1.146-1.278,1.645-2.049c2.85-4.483,2.566-10.368-0.301-14.231c-0.49-0.661-1.047-1.266-1.67-1.799
	c-3.559-3.116-7.801-2.747-10.354,0.568c-0.439,0.567-0.836,1.223-1.188,1.966c-1.848,3.824-2.053,8.869-0.77,12.781
	c0.229,0.703,0.107,1.596-0.303,2.225s-1.006,0.854-1.479,0.557l-7.775-5.415c-0.086-0.068-0.656,0.104-0.656,0.104
	s-7.652,11.599-13.684,22.48c-3.188,5.344-8.787,14.908-8.787,14.908L62.988,91.989l8.326,16.95c0,0,15.113-11.989,28.119-27.253
	c7.475-8.531,12.283-14.994,15.148-19.283c1.392-2.139,2.336-3.74,2.924-4.793c0.291-0.527,1.004-1.896,1.134-2.062
	c0.1-0.123-0.171-0.773-0.171-0.773l-5.813-12.583c-0.256-0.672-0.229-1.551,0.164-2.262c0.113-0.205,0.246-0.381,0.392-0.521
	C113.209,39.409,113.445,39.169,114.164,39.146z"/>
<path fill="#A6D2ED" d="M110.818,29.659c0-4.991,3.631-9.037,8.107-9.037c1.566,0,3.021,0.502,4.264,1.357
	c-1.215-2.581-3.391-4.308-5.873-4.308c-3.812,0-6.902,4.046-6.902,9.036c0,1.066,0.148,2.085,0.408,3.034
	C110.822,29.714,110.818,29.687,110.818,29.659z"/>
<linearGradient id="SVGID_36_" gradientUnits="userSpaceOnUse" x1="67.437" y1="718.4004" x2="108.293" y2="718.4004" gradientTransform="matrix(1 0 0 1 5 -642)">
	<stop  offset="0" style="stop-color:#C2DFF2"/>
	<stop  offset="0.3734" style="stop-color:#BCDCF1"/>
	<stop  offset="0.8526" style="stop-color:#ACD5EE"/>
	<stop  offset="1" style="stop-color:#A6D2ED"/>
</linearGradient>
<path fill="url(#SVGID_36_)" d="M113.293,56.553l-3.297-6.332c0,0-19.605,32.041-37.559,49.059l1.926,3.299
	C74.363,102.578,102.574,75.521,113.293,56.553z"/>
<linearGradient id="SVGID_37_" gradientUnits="userSpaceOnUse" x1="108.9102" y1="726.8193" x2="108.9102" y2="658.0107" gradientTransform="matrix(0.9978 0.0668 -0.0668 0.9978 8.0332 -635.0205)">
	<stop  offset="0" style="stop-color:#FFFFFF"/>
	<stop  offset="0.0682" style="stop-color:#FDFFF8"/>
	<stop  offset="0.4575" style="stop-color:#F1FCD8"/>
	<stop  offset="0.782" style="stop-color:#EAFBC3"/>
	<stop  offset="1" style="stop-color:#E7FABC"/>
</linearGradient>
<path fill="url(#SVGID_37_)" d="M63.77,89.775l5.865,7.162c0.352,0.428,0.779,0.689,1.172,0.715
	c0.084,0.006,0.373-0.053,0.435-0.082c0.221-0.107,0.422-0.303,0.58-0.568l14.012-23.393c0.639-1.066,0.445-2.859-0.422-3.92
	l-0.354-0.25c-0.123-0.021-8.9-0.924-8.9-0.924s0.094-1.262,0.108-1.287c0.801-15.023,6.639-24.262,9.105-27.53l0.053-0.068
	c0.861-1.14,2.305-3.045,1.623-4.928c-0.359-0.992-1.062-1.482-2.283-1.592l-0.068-0.008l-0.064-0.012l-25.336-5.158
	c-0.078-0.016-0.154-0.025-0.232-0.031c-0.141-0.009-0.281,0-0.42,0.027c-0.523,0.105-0.99,0.492-1.309,1.084
	c-0.238,0.447-0.971,3.002-1.369,6.666c-0.65,5.967-0.654,16.315,3.023,31.733l0.312,1.314l-1.867,0.21L63.77,89.775z"/>
<linearGradient id="SVGID_38_" gradientUnits="userSpaceOnUse" x1="108.8438" y1="724.0918" x2="108.8438" y2="660.1348" gradientTransform="matrix(0.9978 0.0668 -0.0668 0.9978 8.0332 -635.0205)">
	<stop  offset="0" style="stop-color:#7A9E2E"/>
	<stop  offset="0.3571" style="stop-color:#9DCB3B"/>
	<stop  offset="1" style="stop-color:#FFFFFF"/>
</linearGradient>
<path fill="url(#SVGID_38_)" d="M64.629,87.432l6.043,7.477L84.043,71.38l-10.041-0.941l0.17-3.211
	c0.809-15.66,6.938-25.348,9.514-28.759c0,0,1.693-2.239,1.394-3.061c-0.027-0.078-25.912-5.372-25.912-5.372
	c-0.221,0.615-0.795,2.808-1.127,5.871c-0.635,5.801-0.631,15.891,2.977,31.023l0.863,3.611l-3.545,0.451L64.629,87.432z"/>
<linearGradient id="SVGID_39_" gradientUnits="userSpaceOnUse" x1="-338.2412" y1="677.4316" x2="-331.6225" y2="742.6355" gradientTransform="matrix(0.827 -0.5621 0.5621 0.827 -68.9957 -704.6641)">
	<stop  offset="0" style="stop-color:#EB2100"/>
	<stop  offset="0.1353" style="stop-color:#E72101"/>
	<stop  offset="0.2554" style="stop-color:#DD2005"/>
	<stop  offset="0.3699" style="stop-color:#CA1F0B"/>
	<stop  offset="0.4802" style="stop-color:#B11E14"/>
	<stop  offset="0.5714" style="stop-color:#961C1E"/>
	<stop  offset="0.8681" style="stop-color:#DBFAF8"/>
</linearGradient>
<path fill="url(#SVGID_39_)" d="M46.154,44.226l-6.85-4.604L60.166,82.33c0,0-1.51,13.504-1.621,13.613
	c0.961-0.229,2.904-1.521,4.004-2.979c2.354-3.119,3.08-8.252,1.033-11.945c-0.172-0.311-11.57-26.295-14.805-33.668
	C47.953,45.425,46.154,44.226,46.154,44.226z"/>
<linearGradient id="SVGID_40_" gradientUnits="userSpaceOnUse" x1="-350.2832" y1="676.4775" x2="-350.2832" y2="743.606" gradientTransform="matrix(0.827 -0.5621 0.5621 0.827 -68.9957 -704.6641)">
	<stop  offset="0" style="stop-color:#EB2100"/>
	<stop  offset="0.1353" style="stop-color:#E72101"/>
	<stop  offset="0.2554" style="stop-color:#DD2005"/>
	<stop  offset="0.3699" style="stop-color:#CA1F0B"/>
	<stop  offset="0.4802" style="stop-color:#B11E14"/>
	<stop  offset="0.5714" style="stop-color:#961C1E"/>
	<stop  offset="0.9066" style="stop-color:#D0EDEB"/>
</linearGradient>
<path fill="url(#SVGID_40_)" d="M31.195,69.121c0,0,16.051,46.221,15.893,46.368c3.314-2.111,6.77-7.791,3.348-15.729
	c-0.42-0.977-11.051-22.523-13.812-28.109c-1.348-2.502,0.695-4.703,0.695-4.703l5.857-8.844l-2.061-3.932L31.195,69.121z"/>
<linearGradient id="SVGID_41_" gradientUnits="userSpaceOnUse" x1="-349.9482" y1="743.6738" x2="-349.9482" y2="676.4775" gradientTransform="matrix(0.827 -0.5621 0.5621 0.827 -68.9957 -704.6641)">
	<stop  offset="0" style="stop-color:#DCFAF8"/>
	<stop  offset="0.4505" style="stop-color:#EB2100"/>
	<stop  offset="0.5806" style="stop-color:#E72101"/>
	<stop  offset="0.6962" style="stop-color:#DD2005"/>
	<stop  offset="0.8062" style="stop-color:#CA1F0B"/>
	<stop  offset="0.9123" style="stop-color:#B11E14"/>
	<stop  offset="1" style="stop-color:#961C1E"/>
</linearGradient>
<path fill="url(#SVGID_41_)" d="M22.92,64.264L41.305,99.33c-0.594,0.32-1.166,0.771-1.693,1.357
	c-2.805,3.107-3.301,8.844-1.107,12.803c2.076,3.744,5.812,4.557,8.584,1.998c0.158-0.146,0.316-0.299,0.469-0.469
	c2.807-3.111,3.303-8.846,1.107-12.803c-0.217-0.393-17.469-33.098-17.469-33.098l9.92-14.949l2.061,3.932l10.752,20.531
	c-0.598,0.32-1.174,0.773-1.705,1.361c-2.807,3.113-3.303,8.846-1.109,12.803c2.109,3.803,5.932,4.576,8.717,1.867
	c0.113-0.109,0.227-0.215,0.336-0.336c2.807-3.109,3.303-8.844,1.107-12.801C61.06,81.142,39.306,39.62,39.306,39.62L22.92,64.264z"
	/>
<rect y="-0.001" fill="none" width="200" height="200.001"/>
</svg>
