<?xml version="1.0" encoding="utf-8"?>
<!DOCTYPE svg PUBLIC "-//W3C//DTD SVG 1.1 Tiny//EN" "http://www.w3.org/Graphics/SVG/1.1/DTD/svg11-tiny.dtd">
<svg version="1.1" baseProfile="tiny"
	 xmlns="http://www.w3.org/2000/svg" xmlns:xlink="http://www.w3.org/1999/xlink" x="0px" y="0px" width="200px" height="200px"
	 viewBox="0 0 200 200" xml:space="preserve">
<path fill="#D9D673" d="M141.751,167.982c-4.106,0-8.448-4.1-11.719-6.215c-10.82,5.131-23.289-8.408-31.409-14.26
	c-10.926,3.739-23.145,10.161-35.024,8.955c-17.251-1.753-30.771-15.8-38.334-30.479c-13.043-25.316-14.924-75.657,20.861-83.846
	c0,0,17.712-3.516,26.553-5.252c13.909-2.733,29.053-7.881,42.898-2.54c12.226,4.715,21.803,14.837,27.938,26.201
	c3.52,6.518,9.569,18.318-1.18,21.329c-9.691,2.715-19.388,5.423-29.074,8.146c0.896,3.529,1.793,7.058,2.686,10.587
	c4.945-1.653,9.779-4.465,14.707-1.587c5.076,2.967,10.154,5.926,15.229,8.889c6.892,4.024,13.787,8.054,20.683,12.078
	c6.07,3.544,12.877,7.128,11.721,15.62c4.643,2.395,6.084,6.211,4.322,11.176c-1.35,3.818-6.262,5.238-9.588,6.848
	c-6.066,2.94-12.129,5.883-18.191,8.826C151.023,164.305,146.197,167.982,141.751,167.982L141.751,167.982"/>
<path fill="#FFFFFF" d="M141.751,165.441c-3.784,0-8.452-4.592-11.463-6.532c-7.254,3.239-11.136,0.255-16.746-3.784
	c-4.835-3.484-9.67-6.966-14.504-10.447c-10.032,3.438-21.346,9.407-32.18,9.407c-16.213,0-29.608-12.536-37.376-25.712
	c-8.628-14.66-12.412-32.687-9.712-49.532C22.169,64,30.756,48.289,46.507,44.664c0,0,17.06-3.395,25.597-5.073
	c12.849-2.525,27.833-7.762,40.744-3.52c11.475,3.773,20.688,12.729,26.84,22.905c3.367,5.563,11.274,17.844,1.312,20.634
	c-10.27,2.877-20.541,5.755-30.812,8.634l3.97,15.646c5.341-1.787,10.827-5.234,16.026-2.197c5.006,2.923,10.01,5.842,15.016,8.764
	c6.515,3.804,13.027,7.609,19.546,11.412c5.976,3.488,12.688,6.654,10.782,15.163c3.94,2.077,6.738,4.45,4.537,9.284
	c-1.217,2.666-6.189,4.08-8.586,5.242c-5.262,2.545-10.518,5.097-15.773,7.648C151.872,161.064,146.156,165.441,141.751,165.441
	L141.751,165.441"/>
<path fill="#CCBF00" d="M107.553,110.214l2.575-1.862l-5.817-21.524l-3.863,0.884L107.553,110.214z"/>
<linearGradient id="SVGID_1_" gradientUnits="userSpaceOnUse" x1="57.5371" y1="72.6182" x2="111.166" y2="72.6182" gradientTransform="matrix(1 0 0 -1 2.5 179)">
	<stop  offset="0.1429" style="stop-color:#CF1920"/>
	<stop  offset="1" style="stop-color:#FF1F27"/>
</linearGradient>
<path fill="url(#SVGID_1_)" d="M107.434,109.255l-5.98-21.507l-7.364-1.529L61.476,96.658l8.471,29.887L107.434,109.255z"/>
<path fill="#E8777E" d="M74.023,142.668l19.373-5.352l0.233-23.412c0.003-0.008,0.011-0.025,0.011-0.025l-8.426-7.218
	c0,0-11.079-5.198-19.688,1.86C65.522,108.521,74.023,142.668,74.023,142.668z"/>
<path fill="#E6D700" d="M112.167,108.062l-5.886-22.031l-1.973,0.795l5.921,21.889L112.167,108.062z"/>
<path id="fine_1_" fill="#CCBF00" d="M92.436,137.346c-5.859,1.547-18.416,1.936-20.486-5.533
	c-3.159-11.4-9.473-34.198-9.473-34.198l-4.7,1.188l12.686,49.817l24.932-9.145L92.436,137.346"/>
<path id="fine_2_" fill="#E6D700" d="M76.462,145.618c0,0-5.471,0.782-7.322-4.425c-0.039-0.11-0.082-0.174-0.124-0.207
	l0.647,10.246l28.772-9.614c-1.021-0.714-2.034-1.433-3.041-2.146L76.462,145.618z"/>
<path id="fine_5_" fill="#FFFAB3" d="M142.77,72.315c-5.531-15.374-17.502-30.749-34.231-34.365
	c-9.813-2.122-20.326,1.481-29.944,3.37c-10.509,2.064-30.961,6.101-30.678,6.055C28.044,51.48,21.205,74.692,21.939,92.43
	c0.814,19.643,9.669,40.968,26.282,52.382c3.722,2.558,7.87,4.556,12.279,5.58c1.524,0.352,9.98,2.086,10.679-0.111
	c0.007-0.025,0.024-0.045,0.03-0.07c0.007-0.029,0.015-0.059,0.021-0.096c0.015-0.085,0.011-0.182,0.021-0.273
	c0.001-0.219-0.028-0.48-0.102-0.804c-0.056-0.229-0.719-2.736-1.724-6.515c-0.93-3.51-1.864-7.021-2.8-10.53
	c-2.945-11.063-5.895-22.129-8.847-33.192c28.674-7.246,35.862-8.426,36.183-11.583c2.183,1.798,4.908,1.269,7.487,0.492
	l40.101-11.315C141.548,76.395,144.104,76.018,142.77,72.315z"/>
<linearGradient id="SVGID_2_" gradientUnits="userSpaceOnUse" x1="22.9277" y1="108.9756" x2="85.0061" y2="56.8858" gradientTransform="matrix(1 0 0 -1 2.5 179)">
	<stop  offset="0" style="stop-color:#FFFBBA"/>
	<stop  offset="0.4396" style="stop-color:#FFF100"/>
	<stop  offset="0.7308" style="stop-color:#E6D900"/>
	<stop  offset="1" style="stop-color:#E8D900"/>
</linearGradient>
<path fill="url(#SVGID_2_)" d="M64.459,148.006c-14.229,0-26.367-15.312-32.059-26.752c-6.882-13.831-9.579-30.48-5.915-45.614
	c3.279-13.546,13.328-26.972,28.692-25.728c15.997,1.295,27.954,16.069,33.984,29.726c2.697,6.88-3.27,8.593-3.27,8.593
	c-10.598,2.808-21.198,5.612-31.794,8.43c4.226,15.955,8.457,31.909,12.686,47.866C66.784,144.53,67.744,148.006,64.459,148.006"/>
<path fill="#E6D700" d="M66.958,86.701c-13.161,0-14.521-25.768-0.829-23.448C77.337,63.252,79.428,86.701,66.958,86.701
	L66.958,86.701"/>
<path id="opacity80" fill-opacity="0.8" fill="#FFFFFF" d="M28.436,94.299C31.863,74.7,45.84,56.645,65.924,56.501c1.382-0.011-3.396-2.268-3.669-2.353
	c-2.438-0.758-4.987-1.187-7.544-1.187c-6.157,0-11.965,2.601-16.335,6.884c-4.672,4.58-7.635,10.698-9.326,16.953
	c-0.422,1.561-3.808,17.767-1.278,18.178C27.993,94.75,28.215,94.525,28.436,94.299"/>
<linearGradient id="SVGID_3_" gradientUnits="userSpaceOnUse" x1="98.8276" y1="139.5156" x2="98.8276" y2="94.4321" gradientTransform="matrix(1 0 0 -1 2.5 179)">
	<stop  offset="0" style="stop-color:#FFFBBA"/>
	<stop  offset="0.6593" style="stop-color:#FFF100"/>
	<stop  offset="1" style="stop-color:#E6D900"/>
</linearGradient>
<path fill="url(#SVGID_3_)" d="M139.65,70.832c-5.643-13.665-16.084-27.453-31.327-30.769c-8.968-1.952-19.125,1.533-27.917,3.122
	c-4.772,0.86-9.538,1.846-14.332,2.582c-1.148,0.174-5.144,0.93-2.368,2.439c4.115,2.236,7.765,3.919,11.454,6.956
	c6.975,5.741,12.695,13.128,16.391,21.388c1.942,4.343,4.447,8.693,9.917,7.931l36.593-9.75
	C138.061,74.73,140.741,72.818,139.65,70.832"/>
<path id="opacity80_1_" fill-opacity="0.8" fill="#FFFFFF" d="M82.033,51.748l33.658-7.247c-1.062-1.062-5.521-3.135-8.672-3.751
	c-11.987,2.453-24.536,5.02-30.184,6.03C74.151,47.603,75.839,49.595,82.033,51.748z"/>
<path fill="#FFFFFF" d="M66.351,81.267c-3.819-3.211-5.688-11.541-0.886-14.785c-10.999-1.757-5.329,22.409,3.856,16.191
	C68.191,82.487,67.237,82.007,66.351,81.267"/>
<path fill="#231F20" d="M71.529,79.769c2.157-5.686-5.511-18.788-8.491-10.006C61.305,74.871,68.424,87.952,71.529,79.769"/>
<linearGradient id="SVGID_4_" gradientUnits="userSpaceOnUse" x1="90.5" y1="53.0269" x2="167.1094" y2="53.0269" gradientTransform="matrix(1 0 0 -1 2.5 179)">
	<stop  offset="0" style="stop-color:#009345"/>
	<stop  offset="1" style="stop-color:#00733D"/>
</linearGradient>
<path fill="url(#SVGID_4_)" d="M136.635,108.852l-11.167-3.359L93,129l29.934,17.454l46.676-18.349L136.635,108.852z"/>
<path fill="#00753F" d="M127.236,109.348c0.089-0.022,0.182-0.029,0.273-0.049c0.588-0.117,2.133-0.352,2.315-0.373
	c1.428-0.171,2.862-0.248,4.303-0.223c0.106,0.004,1.778,0.074,2.507,0.148c0,0-8.34-4.441-8.799-4.723
	c-1.768-1.084-9.654,1.545-11.449,2.146c-2.967,0.996-5.938,1.99-8.902,2.998l-0.006-0.013c-9.611,3.222-19.227,6.444-28.84,9.671
	l0.031,0.019c1.144,3.269,23.3,15.769,24.718,14.821c-0.005,0.008-0.008,0.012-0.008,0.016c0.003-0.008,0.008-0.016,0.012-0.02
	c1.356-1.709,1.649-5.869,2.695-7.998L127.236,109.348z"/>
<path fill="none" d="M126.52,108.902c-6.086,2.043-12.179,4.07-18.252,6.139l-0.008-0.016l-9.059,3.037l0.044,0.033
	c0.1,1.133,0.196,2.264,0.296,3.396l6.547,4.279l20.36,13.313v-0.041l26.655-11.228l-0.101-2.586l-25.535-15.739l-0.229-0.146
	c0.09-0.019,0.183-0.029,0.271-0.048c-0.093,0.019-0.186,0.025-0.273,0.048L126.52,108.902z"/>
<path fill="#006838" d="M172.932,134.427c0.178-2.438-1.149-5.098-3.267-6.344c-15.581,6.122-46.731,18.37-46.731,18.37l2.399,9.07
	L172.932,134.427z"/>
<path fill="#004F2B" d="M169.491,135.73l0.11-1.41l-41.256,16.498l0.025,2.877l-2.131,0.867l-3.835,2.518l0.583,0.268
	c2.619,0.831,5.216-0.74,7.619-1.742l42.144-19.076l0.161-2.094L169.491,135.73z"/>
<linearGradient id="SVGID_5_" gradientUnits="userSpaceOnUse" x1="73.8755" y1="40.8813" x2="123.8672" y2="40.8813" gradientTransform="matrix(1 0 0 -1 2.5 179)">
	<stop  offset="0" style="stop-color:#009345"/>
	<stop  offset="1" style="stop-color:#00733D"/>
</linearGradient>
<path fill="url(#SVGID_5_)" d="M126.241,154.562c0,0,1.118-5.125-3.308-8.109c-0.583-0.394-8.844-5.741-13.265-8.612
	c-0.015,0.004-0.022,0.009-0.032,0.013c-4.503-2.916-8.988-5.834-13.483-8.756c-3.263-2.117-6.54-4.207-9.781-6.354
	c-2.408-1.599-4.835-3.22-7.704-3.792c-2.21,0.105-2.772,3.455-1.905,5.152c0.903,1.771,2.869,3.199,4.343,4.453
	c5.55,4.725,11.536,8.959,17.501,13.133c5.985,4.19,12.041,8.293,18.24,12.162c1.779,1.109,3.566,2.26,5.453,3.182
	c0.191,0.096,0.381,0.148,0.565,0.191C125.422,157.766,126.241,154.562,126.241,154.562z"/>
<path fill="#4D4D4D" d="M107.863,123.589l19.604-14.098l-0.95-0.589l-27.316,9.16C99.201,118.062,104.975,121.751,107.863,123.589"
	/>
<polygon fill="#666666" points="126.448,139.085 126.448,139.044 126.419,139.055 126.419,135.426 99.245,118.096 99.541,121.492 
	"/>
<linearGradient id="SVGID_6_" gradientUnits="userSpaceOnUse" x1="105.3633" y1="56.541" x2="150.5039" y2="56.541" gradientTransform="matrix(1 0 0 -1 2.5 179)">
	<stop  offset="0" style="stop-color:#4D4D4D"/>
	<stop  offset="0.3452" style="stop-color:#4A4A4A"/>
	<stop  offset="0.6024" style="stop-color:#424141"/>
	<stop  offset="0.8303" style="stop-color:#333031"/>
	<stop  offset="1" style="stop-color:#231F20"/>
</linearGradient>
<path fill="url(#SVGID_6_)" d="M112.637,117.548c-0.736,0.722-1.433,1.479-2.092,2.271c-0.982,1.185-1.882,2.445-2.682,3.771
	l18.556,11.837v-0.008l26.281-10.331l0.304,0.146l-25.535-15.74c-4.986,1.099-9.503,3.414-13.246,6.613
	C113.68,116.568,113.146,117.045,112.637,117.548z"/>
<polygon fill="#333333" points="126.419,135.418 126.419,135.426 126.419,139.055 153.104,127.816 153.004,125.232 152.7,125.087 
	"/>
<linearGradient id="SVGID_7_" gradientUnits="userSpaceOnUse" x1="128.0391" y1="30.4849" x2="175.377" y2="30.4849" gradientTransform="matrix(1 0 0 -1 2.5 179)">
	<stop  offset="0" style="stop-color:#F9D431"/>
	<stop  offset="1" style="stop-color:#D9B82A"/>
</linearGradient>
<path fill="url(#SVGID_7_)" d="M177.529,141.426c-0.396-0.211-8.956-4.771-8.956-4.771l-38.034,15.285l10.969,8.437
	c0,0,36.268-18.095,36.333-18.376S177.925,141.637,177.529,141.426z"/>
<path fill="#FFFFFF" d="M136.932,151.561l9.629,5.328c0.539-0.252,1.153-0.541,4.442-1.902l-9.56-5.26L136.932,151.561z"/>
<path fill="#FFFFFF" d="M146.216,147.741l9.196,4.981c0.572-0.27,1.154-0.544,4.354-1.867l-9.096-4.91L146.216,147.741z"/>
<path fill="#FFFFFF" d="M155.193,144.123l8.67,4.602c0.56-0.266,1.117-0.531,4.277-1.834l-8.554-4.523L155.193,144.123z"/>
<path fill="#FFFFFF" d="M163.868,140.697l8.067,4.195c0.555-0.264,1.08-0.511,3.851-1.625l-7.938-4.112L163.868,140.697z"/>
<linearGradient id="SVGID_8_" gradientUnits="userSpaceOnUse" x1="128.0381" y1="26.7837" x2="175.3652" y2="26.7837" gradientTransform="matrix(1 0 0 -1 2.5 179)">
	<stop  offset="0" style="stop-color:#FAAF40"/>
	<stop  offset="1" style="stop-color:#D99837"/>
</linearGradient>
<path fill="url(#SVGID_8_)" d="M177.841,141.948c-0.038,0.069-0.082,0.122-0.082,0.122c-4.245,2.021-33.122,15.742-34.772,16.416
	c-1.774,0.731-2.479-0.11-2.479-0.11l-9.97-6.437v3.621l10.354,6.688c0,0,0.613,0.47,1.586,0.101c0,0,33.756-16.392,34.336-16.646
	c0.582-0.251,0.696-1.018,0.696-1.018l0.354-2.744L177.841,141.948z"/>
<rect fill="none" width="200" height="200"/>
</svg>
