<?xml version="1.0" encoding="UTF-8"?>
<!DOCTYPE svg PUBLIC "-//W3C//DTD SVG 1.1 Tiny//EN" "http://www.w3.org/Graphics/SVG/1.1/DTD/svg11-tiny.dtd">
<svg baseProfile="tiny" height="30px" version="1.1" viewBox="0 0 30 30" width="30px" x="0px" xmlns="http://www.w3.org/2000/svg" xmlns:xlink="http://www.w3.org/1999/xlink" y="0px">
<rect height="4.5" transform="matrix(-0.7071 0.7071 -0.7071 -0.7071 47.4991 -4.5621)" width="7.015" x="21.187" y="5.306"/>
<rect height="4.5" transform="matrix(-0.7071 -0.7071 0.7071 -0.7071 29.4933 46.4477)" width="7.945" x="20.393" y="14.866"/>
<rect height="4.5" transform="matrix(0.707 0.7072 -0.7072 0.707 8.6341 -7.8231)" width="4.056" x="11.731" y="4.259"/>
<polygon points="21.192,11.843 17.657,8.308 12,13.965 6.343,8.308 2.808,11.843 8.465,17.5 2.808,23.157 6.343,26.692 12,21.035   17.657,26.692 21.192,23.157 15.536,17.5 "/>
<rect fill="none" height="30" width="30"/>
</svg>
