<?xml version="1.0" encoding="UTF-8"?>
<!DOCTYPE svg PUBLIC "-//W3C//DTD SVG 1.1 Tiny//EN" "http://www.w3.org/Graphics/SVG/1.1/DTD/svg11-tiny.dtd">
<svg baseProfile="tiny" height="30px" version="1.1" viewBox="0 0 30 30" width="30px" x="0px" xmlns="http://www.w3.org/2000/svg" xmlns:xlink="http://www.w3.org/1999/xlink" y="0px">
<polygon points="10.069,20 10,20 10,19.931 8,17.928 8,22 12.065,22 "/>
<polygon points="19.757,24 8,24 8,28 10,28 10,26 20,26 20,28 22,28 22,26.243 "/>
<polygon points="10.243,6 22,6 22,2 20,2 20,4 10,4 10,2 8,2 8,3.757 "/>
<polygon points="9.961,14.205 8.251,15.915 13.899,21.571 13.903,21.566 13.908,21.571 15.618,19.86 "/>
<rect height="3" transform="matrix(-0.7068 0.7074 -0.7074 -0.7068 45.409 4.2241)" width="8.575" x="17.542" y="10.022"/>
<polygon points="14.243,10 18.965,10 20.965,8 12.243,8 "/>
<polygon points="8,12.243 8,13.903 8.83,13.073 "/>
<polygon points="22,17.757 22,15.736 20.99,16.747 "/>
<polygon points="16.749,20.992 15.742,22 17.757,22 "/>
<rect height="36" transform="matrix(0.7071 -0.7071 0.7071 0.7071 -6.2131 14.9998)" width="2" x="14" y="-3"/>
<rect fill="none" height="30" width="30"/>
</svg>
