<?xml version="1.0" encoding="UTF-8"?>
<!DOCTYPE svg PUBLIC "-//W3C//DTD SVG 1.1 Tiny//EN" "http://www.w3.org/Graphics/SVG/1.1/DTD/svg11-tiny.dtd">
<svg baseProfile="tiny" height="30px" version="1.1" viewBox="0 0 30 30" width="30px" x="0px" xmlns="http://www.w3.org/2000/svg" xmlns:xlink="http://www.w3.org/1999/xlink" y="0px">
<rect height="1" width="8" x="16" y="15"/>
<rect height="1" width="6" x="18" y="18"/>
<rect height="1" width="7" x="17" y="21"/>
<rect height="1" width="6" x="16" y="24"/>
<polygon points="12,10 12,12 14,14 14,11.9 26,11.9 26,27 14,27 14,24.5 12,26.5 12,29 28,29 28,10 "/>
<path d="M23.5,3h-2.092C21.201,2.419,20.652,2,20,2h-2.092c-0.207-0.581-0.756-1-1.408-1h-5c-0.652,0-1.202,0.419-1.408,1H8  C7.348,2,6.798,2.419,6.592,3H4.5C3.119,3,2,4.119,2,5.5v14C2,20.881,3.119,22,4.5,22H11v-0.694C7,21,5.9,18.266,5.9,15.305V12.9  h4.2v2.405c0,0.616,0.302,1.194,0.8,1.548H11V8.9h15V5.5C26,4.119,24.881,3,23.5,3z M19,5H9C8.448,5,8,4.552,8,4s0.448-1,1-1h1.592  C10.798,2.419,11.348,2,12,2h4c0.652,0,1.201,0.419,1.408,1H19c0.553,0,1,0.448,1,1S19.553,5,19,5z"/>
<path d="M17,19.107l-5-4v3.197c-1.654,0-3-1.346-3-3V14H7v1.305c0,2.76,2.239,5,5,5v2.803L17,19.107z"/>
<rect fill="none" height="30" width="30"/>
</svg>
