<?xml version="1.0" encoding="UTF-8"?>
<!DOCTYPE svg PUBLIC "-//W3C//DTD SVG 1.1 Tiny//EN" "http://www.w3.org/Graphics/SVG/1.1/DTD/svg11-tiny.dtd">
<svg baseProfile="tiny" height="30px" version="1.1" viewBox="0 0 30 30" width="30px" x="0px" xmlns="http://www.w3.org/2000/svg" xmlns:xlink="http://www.w3.org/1999/xlink" y="0px">
<polygon points="20,17.738 20,20 17.74,20 15.742,22 22,22 22,15.736 "/>
<polygon points="10,11.903 10,10 18.965,10 20.965,8 8,8 8,13.903 "/>
<polygon points="10.069,20 10,20 10,19.931 8,17.928 8,22 12.065,22 "/>
<polygon points="25.92,9.55 23.799,7.429 13.904,17.324 10.373,13.793 8.251,15.915 13.899,21.571 13.903,21.566 13.908,21.571 "/>
<polygon points="20,2 20,4 10,4 10,2 8,2 8,6 22,6 22,2 "/>
<polygon points="8,24 8,28 10,28 10,26 20,26 20,28 22,28 22,24 "/>
<rect fill="none" height="30" width="30"/>
</svg>
