<?xml version="1.0" ?>
<!DOCTYPE svg  PUBLIC '-//W3C//DTD SVG 1.1 Tiny//EN'  'http://www.w3.org/Graphics/SVG/1.1/DTD/svg11-tiny.dtd'>
<svg baseProfile="tiny" height="30px" version="1.1" viewBox="0 0 30 30" width="30px" x="0px" xmlns="http://www.w3.org/2000/svg" xmlns:xlink="http://www.w3.org/1999/xlink" y="0px">
<path d="M10.57,19.43c-0.359-0.361-0.68-0.746-0.982-1.139l-1.542,1.542c-0.766-0.451-1.767-0.354-2.425,0.304l-2.828,2.828,4.242,4.242,2.828-2.828c0.659-0.658,0.756-1.658,0.304-2.425l1.542-1.542c-0.39-0.29-0.78-0.61-1.14-0.97z"/>
<path d="M26.13,3.871c-4.1-4.102-10.75-4.102-14.85-0.002-4.1,4.102-4.1,10.75,0.002,14.85,4.1,4.102,10.75,4.102,14.85,0,4.1-4.1,4.1-10.75,0-14.85zm-2.12,12.73c-2.928,2.93-7.678,2.93-10.6,0-2.94-2.93-2.94-7.68-0.01-10.61,2.93-2.928,7.678-2.928,10.61,0.002s2.93,7.678,0,10.61z"/>
<path d="M1.381,27.2l1.414,1.414c0.781,0.781,2.047,0.781,2.828,0l-4.242-4.242c-0.781,0.79-0.781,2.05,0,2.83z"/>
<g fill-opacity="0.5" stroke-opacity="0.5">
<rect fill="none" height="30" width="30"/>
</g>
</svg>